STARTFONT 2.1
COMMENT
COMMENT Converted from OpenType font "uvn_baisau.ttf" by "otf2bdf 3.0".
COMMENT
FONT -FreeType-UVN Bai Sau-Bold-R-Normal--22-160-100-100-P-112-ISO10646-1
SIZE 16 100 100
FONTBOUNDINGBOX 30 31 -3 -6
STARTPROPERTIES 19
FOUNDRY "FreeType"
FAMILY_NAME "UVN Bai Sau"
WEIGHT_NAME "Bold"
SLANT "R"
SETWIDTH_NAME "Normal"
ADD_STYLE_NAME ""
PIXEL_SIZE 22
POINT_SIZE 160
RESOLUTION_X 100
RESOLUTION_Y 100
SPACING "P"
AVERAGE_WIDTH 112
CHARSET_REGISTRY "ISO10646"
CHARSET_ENCODING "1"
FONT_ASCENT 24
FONT_DESCENT 5
COPYRIGHT "(c) Copyright 2001 by Tom Truong. All Rights Reserved"
_OTF_FONTFILE "uvn_baisau.ttf"
_OTF_PSNAME "UVNBaiSauBold"
ENDPROPERTIES
CHARS 383
STARTCHAR 0020
ENCODING 32
SWIDTH 270 0
DWIDTH 6 0
BBX 0 0 0 0
BITMAP
ENDCHAR
STARTCHAR 0021
ENCODING 33
SWIDTH 315 0
DWIDTH 7 0
BBX 5 16 1 0
BITMAP
78
78
78
78
78
78
78
78
70
70
70
00
70
F8
F8
70
ENDCHAR
STARTCHAR 0022
ENCODING 34
SWIDTH 315 0
DWIDTH 7 0
BBX 6 6 1 10
BITMAP
CC
CC
CC
CC
CC
CC
ENDCHAR
STARTCHAR 0023
ENCODING 35
SWIDTH 765 0
DWIDTH 17 0
BBX 17 16 0 0
BITMAP
01C600
01CE00
018E00
039C00
1FFF80
3FFF00
3FFF00
063800
0E3000
7FFE00
7FFE00
FFFC00
1CE000
18E000
38C000
39C000
ENDCHAR
STARTCHAR 0024
ENCODING 36
SWIDTH 540 0
DWIDTH 12 0
BBX 9 18 2 -1
BITMAP
1C00
1C00
3F00
7F00
FF00
F000
F800
7C00
3E00
1F00
0F80
0780
FF80
FF00
FF00
1C00
1C00
1C00
ENDCHAR
STARTCHAR 0025
ENCODING 37
SWIDTH 855 0
DWIDTH 19 0
BBX 18 16 1 0
BITMAP
100E00
7C0C00
FE1800
E73800
C73000
E77000
FE6000
7CC000
01CF00
019F80
033B80
0731C0
0631C0
0E3B80
0C1F80
180F00
ENDCHAR
STARTCHAR 0026
ENCODING 38
SWIDTH 720 0
DWIDTH 16 0
BBX 16 16 1 0
BITMAP
0FE0
3FE0
7FE0
3FE0
3E00
3F1C
7F3C
7F9E
F7DE
F3FE
F1FE
F0FC
7CFC
7FFC
3FFE
0FDF
ENDCHAR
STARTCHAR 0027
ENCODING 39
SWIDTH 180 0
DWIDTH 4 0
BBX 2 6 1 10
BITMAP
C0
C0
C0
C0
C0
C0
ENDCHAR
STARTCHAR 0028
ENCODING 40
SWIDTH 360 0
DWIDTH 8 0
BBX 6 21 2 -5
BITMAP
08
1C
3C
38
70
70
E0
E0
E0
C0
C0
C0
E0
E0
E0
F0
70
78
3C
1C
08
ENDCHAR
STARTCHAR 0029
ENCODING 41
SWIDTH 360 0
DWIDTH 8 0
BBX 6 21 1 -5
BITMAP
40
E0
E0
70
78
38
1C
1C
1C
1C
1C
1C
1C
1C
1C
38
38
70
F0
E0
40
ENDCHAR
STARTCHAR 002A
ENCODING 42
SWIDTH 450 0
DWIDTH 10 0
BBX 9 8 1 8
BITMAP
1C00
1C00
6B00
FF80
1C00
7F00
6B00
1C00
ENDCHAR
STARTCHAR 002B
ENCODING 43
SWIDTH 810 0
DWIDTH 18 0
BBX 13 13 3 0
BITMAP
0700
0700
0700
0700
0700
FFF8
FFF8
FFF8
0700
0700
0700
0700
0700
ENDCHAR
STARTCHAR 002C
ENCODING 44
SWIDTH 270 0
DWIDTH 6 0
BBX 4 6 1 -3
BITMAP
F0
F0
E0
E0
E0
C0
ENDCHAR
STARTCHAR 002D
ENCODING 45
SWIDTH 315 0
DWIDTH 7 0
BBX 6 3 1 4
BITMAP
FC
FC
FC
ENDCHAR
STARTCHAR 002E
ENCODING 46
SWIDTH 270 0
DWIDTH 6 0
BBX 4 4 1 0
BITMAP
70
F0
F0
F0
ENDCHAR
STARTCHAR 002F
ENCODING 47
SWIDTH 270 0
DWIDTH 6 0
BBX 8 18 -1 -2
BITMAP
03
06
06
06
06
0C
0C
0C
18
18
18
30
30
30
60
60
60
C0
ENDCHAR
STARTCHAR 0030
ENCODING 48
SWIDTH 540 0
DWIDTH 12 0
BBX 11 16 1 0
BITMAP
1E00
7F80
7FC0
FFE0
F1E0
E1E0
E1E0
E1E0
E1E0
E1E0
E1E0
F1E0
F3E0
FFC0
7FC0
3F00
ENDCHAR
STARTCHAR 0031
ENCODING 49
SWIDTH 540 0
DWIDTH 12 0
BBX 6 16 3 0
BITMAP
FC
FC
FC
FC
3C
3C
3C
3C
3C
3C
3C
3C
3C
3C
3C
3C
ENDCHAR
STARTCHAR 0032
ENCODING 50
SWIDTH 540 0
DWIDTH 12 0
BBX 11 16 1 0
BITMAP
1E00
3F80
7FC0
FFC0
F3C0
F3C0
FBC0
7780
2F80
1F00
3E00
7C00
FFE0
FFE0
FFE0
7FE0
ENDCHAR
STARTCHAR 0033
ENCODING 51
SWIDTH 540 0
DWIDTH 12 0
BBX 11 16 1 0
BITMAP
FE00
FF80
FFC0
FFC0
0780
0F00
1E00
3F80
3FC0
03C0
01E0
01E0
FFC0
FFC0
FF80
FF00
ENDCHAR
STARTCHAR 0034
ENCODING 52
SWIDTH 540 0
DWIDTH 12 0
BBX 11 16 1 0
BITMAP
0700
0F80
1E80
1D80
3D80
3B80
7B80
7380
F380
FFE0
FFE0
FFE0
7FE0
0380
0380
0380
ENDCHAR
STARTCHAR 0035
ENCODING 53
SWIDTH 540 0
DWIDTH 12 0
BBX 10 16 1 0
BITMAP
7F80
7F80
7F80
7F80
7000
7000
7F80
7FC0
7FC0
03C0
01C0
01C0
FFC0
FFC0
FF80
FF00
ENDCHAR
STARTCHAR 0036
ENCODING 54
SWIDTH 540 0
DWIDTH 12 0
BBX 11 16 1 0
BITMAP
0780
0F00
1F00
1E00
3C00
3C00
7B80
7BC0
F7E0
F1E0
E1E0
F1E0
FBE0
FFC0
7F80
3F00
ENDCHAR
STARTCHAR 0037
ENCODING 55
SWIDTH 540 0
DWIDTH 12 0
BBX 10 16 1 0
BITMAP
FF00
FFC0
FFC0
FFC0
03C0
03C0
0380
7FC0
7FC0
7FC0
0F00
0F00
1F00
1E00
1E00
3E00
ENDCHAR
STARTCHAR 0038
ENCODING 56
SWIDTH 540 0
DWIDTH 12 0
BBX 11 16 1 0
BITMAP
1E00
3F80
7FC0
F3C0
F1C0
F1C0
7FC0
3F80
7FC0
F1E0
E1E0
E1E0
F3E0
FFC0
7FC0
3F00
ENDCHAR
STARTCHAR 0039
ENCODING 57
SWIDTH 540 0
DWIDTH 12 0
BBX 11 16 1 0
BITMAP
1E00
3F80
7FC0
FFC0
F1E0
E1E0
E1E0
F1C0
FBC0
7FC0
3780
0F80
0F00
1E00
1E00
3C00
ENDCHAR
STARTCHAR 003A
ENCODING 58
SWIDTH 270 0
DWIDTH 6 0
BBX 5 11 1 0
BITMAP
70
F0
F8
F0
20
00
00
70
F8
F8
70
ENDCHAR
STARTCHAR 003B
ENCODING 59
SWIDTH 270 0
DWIDTH 6 0
BBX 5 14 1 -3
BITMAP
30
78
F8
78
30
00
00
00
70
F0
E0
E0
E0
C0
ENDCHAR
STARTCHAR 003C
ENCODING 60
SWIDTH 810 0
DWIDTH 18 0
BBX 13 13 3 0
BITMAP
0018
0078
03F8
0FC0
7F00
FC00
F000
FC00
3F80
0FE0
01F8
0078
0008
ENDCHAR
STARTCHAR 003D
ENCODING 61
SWIDTH 810 0
DWIDTH 18 0
BBX 13 7 3 3
BITMAP
FFF8
FFF8
0000
0000
0000
FFF8
FFF8
ENDCHAR
STARTCHAR 003E
ENCODING 62
SWIDTH 810 0
DWIDTH 18 0
BBX 13 13 3 0
BITMAP
8000
F000
FC00
3F80
07E0
01F8
0078
03F8
0FE0
7F00
FC00
E000
8000
ENDCHAR
STARTCHAR 003F
ENCODING 63
SWIDTH 495 0
DWIDTH 11 0
BBX 10 16 1 0
BITMAP
1E00
7F00
FF80
FFC0
E3C0
03C0
0FC0
1F80
1F80
1E00
1C00
0000
1C00
3E00
3E00
1C00
ENDCHAR
STARTCHAR 0040
ENCODING 64
SWIDTH 990 0
DWIDTH 22 0
BBX 20 19 1 -3
BITMAP
01FE00
07FF80
1E01C0
3C00E0
300070
70F630
61FE30
E38E30
C70E30
C70C30
C61C30
C61C60
C73CE0
E7EFC0
63CF00
700000
3C0180
1FFF80
07FE00
ENDCHAR
STARTCHAR 0041
ENCODING 65
SWIDTH 585 0
DWIDTH 13 0
BBX 12 16 1 0
BITMAP
0F00
3FC0
7FE0
7FE0
F9F0
F0F0
F0F0
F7F0
F7F0
F7F0
F0F0
F0F0
F0F0
F0F0
F0F0
F0F0
ENDCHAR
STARTCHAR 0042
ENCODING 66
SWIDTH 585 0
DWIDTH 13 0
BBX 12 16 1 0
BITMAP
0F00
3F80
7FC0
FFE0
F1E0
F1E0
F7C0
F780
F7C0
F7E0
F0F0
F0F0
F3F0
F7E0
F7C0
F780
ENDCHAR
STARTCHAR 0043
ENCODING 67
SWIDTH 495 0
DWIDTH 11 0
BBX 10 16 1 0
BITMAP
00C0
0FC0
3FC0
7FC0
7C00
F800
F000
F000
F000
F000
F000
F800
7FC0
3FC0
1FC0
07C0
ENDCHAR
STARTCHAR 0044
ENCODING 68
SWIDTH 630 0
DWIDTH 14 0
BBX 13 16 1 0
BITMAP
F000
FF80
FFC0
FFE0
F3F0
F0F0
F0F0
F078
F078
F078
F0F0
F1F0
F7E0
F7E0
F780
F700
ENDCHAR
STARTCHAR 0045
ENCODING 69
SWIDTH 495 0
DWIDTH 11 0
BBX 10 16 1 0
BITMAP
00C0
0FC0
3FC0
7FC0
7C00
F000
FFC0
FFC0
FFC0
FFC0
F000
F800
7FC0
3FC0
1FC0
07C0
ENDCHAR
STARTCHAR 0046
ENCODING 70
SWIDTH 450 0
DWIDTH 10 0
BBX 8 16 1 0
BITMAP
07
3F
7F
FF
F0
F0
F0
FF
FF
FF
F0
F0
F0
F0
F0
F0
ENDCHAR
STARTCHAR 0047
ENCODING 71
SWIDTH 765 0
DWIDTH 17 0
BBX 16 16 1 0
BITMAP
07C0
1FF0
3FFC
7FF8
7C30
F800
F1FF
F1FF
F1FE
F1FE
F01E
F83E
7FFC
3FFC
1FF8
0FE0
ENDCHAR
STARTCHAR 0048
ENCODING 72
SWIDTH 630 0
DWIDTH 14 0
BBX 12 16 1 0
BITMAP
F0F0
F0F0
F0F0
F0F0
F0F0
F0F0
FFF0
FFF0
FFF0
FFF0
F0F0
F0F0
F0F0
F0F0
F0F0
F0F0
ENDCHAR
STARTCHAR 0049
ENCODING 73
SWIDTH 270 0
DWIDTH 6 0
BBX 4 16 1 0
BITMAP
F0
F0
F0
F0
F0
F0
F0
F0
F0
F0
F0
F0
F0
F0
F0
F0
ENDCHAR
STARTCHAR 004A
ENCODING 74
SWIDTH 405 0
DWIDTH 9 0
BBX 8 16 0 0
BITMAP
0F
0F
0F
0F
0F
0F
0F
0F
0F
0F
0F
0F
FF
FF
FE
FC
ENDCHAR
STARTCHAR 004B
ENCODING 75
SWIDTH 585 0
DWIDTH 13 0
BBX 12 16 1 0
BITMAP
F0F0
F0F0
F1E0
F1E0
F3C0
F7C0
FF80
FFC0
FFE0
FFE0
F1E0
F0E0
F0E0
F0E0
F0E0
F0E0
ENDCHAR
STARTCHAR 004C
ENCODING 76
SWIDTH 405 0
DWIDTH 9 0
BBX 9 16 1 0
BITMAP
F000
F000
F000
F000
F000
F000
F000
F000
F000
F000
F000
F000
FF80
7F80
7F80
1F80
ENDCHAR
STARTCHAR 004D
ENCODING 77
SWIDTH 810 0
DWIDTH 18 0
BBX 18 16 0 0
BITMAP
0C0E00
1E1F00
3F1F00
3F1F80
3F3B80
3F3B80
3BBB80
7BBB80
7BB380
7BF380
79F3C0
71F3C0
71F3C0
71E3C0
F1E3C0
F0E1C0
ENDCHAR
STARTCHAR 004E
ENCODING 78
SWIDTH 630 0
DWIDTH 14 0
BBX 13 16 1 0
BITMAP
7078
F878
F878
FC78
FE78
FE78
FF78
FF78
F7F8
F7F8
F3F8
F1F8
F1F8
F0F8
F0F8
F070
ENDCHAR
STARTCHAR 004F
ENCODING 79
SWIDTH 765 0
DWIDTH 17 0
BBX 16 16 1 0
BITMAP
07C0
1FF0
3FF8
7FFC
7C3E
F81E
F01E
F00F
F00F
F01E
F01E
F83E
7FFC
3FFC
1FF8
0FE0
ENDCHAR
STARTCHAR 0050
ENCODING 80
SWIDTH 540 0
DWIDTH 12 0
BBX 11 16 1 0
BITMAP
0F00
3F80
7FC0
FFE0
F1E0
F1E0
F1E0
F7E0
F7C0
F7C0
F700
F000
F000
F000
F000
F000
ENDCHAR
STARTCHAR 0051
ENCODING 81
SWIDTH 765 0
DWIDTH 17 0
BBX 16 18 1 -2
BITMAP
07C0
1FF0
3FF8
7FFC
7C3E
F01E
F01E
F00F
F00F
F01F
F39E
FBBE
7BFC
3BFC
1BF8
0BE0
0380
0380
ENDCHAR
STARTCHAR 0052
ENCODING 82
SWIDTH 540 0
DWIDTH 12 0
BBX 11 16 1 0
BITMAP
0F00
3F80
7FC0
FFE0
F1E0
F1E0
F3E0
F7C0
F7C0
F7E0
F1E0
F1E0
F1E0
F1E0
F1E0
F1E0
ENDCHAR
STARTCHAR 0053
ENCODING 83
SWIDTH 495 0
DWIDTH 11 0
BBX 10 16 1 0
BITMAP
0780
7F80
FF80
FF80
F000
F000
FC00
7E00
3F80
0FC0
07C0
03C0
FFC0
FFC0
FF80
FF00
ENDCHAR
STARTCHAR 0054
ENCODING 84
SWIDTH 495 0
DWIDTH 11 0
BBX 11 16 0 0
BITMAP
FFE0
FFE0
FFE0
FFE0
0E00
0E00
0E00
0E00
0E00
0E00
0E00
0E00
0E00
0E00
0E00
0E00
ENDCHAR
STARTCHAR 0055
ENCODING 85
SWIDTH 585 0
DWIDTH 13 0
BBX 12 16 1 0
BITMAP
F0F0
F0F0
F0F0
F0F0
F0F0
F0F0
F0F0
F0F0
F0F0
F0F0
F0F0
F0F0
FFE0
7FE0
3FC0
1F80
ENDCHAR
STARTCHAR 0056
ENCODING 86
SWIDTH 540 0
DWIDTH 12 0
BBX 13 16 0 0
BITMAP
F078
F070
F0F0
F0F0
78F0
78E0
79E0
79E0
3DE0
3DC0
3FC0
3FC0
1FC0
1F80
1F80
0F00
ENDCHAR
STARTCHAR 0057
ENCODING 87
SWIDTH 900 0
DWIDTH 20 0
BBX 18 16 1 0
BITMAP
F1E3C0
F1E3C0
F1E3C0
F1E3C0
F1E3C0
F1E3C0
F1E3C0
F1E3C0
F1E3C0
F1E3C0
F1E3C0
F1E3C0
FFFFC0
7FFFC0
7FFF80
1F3F00
ENDCHAR
STARTCHAR 0058
ENCODING 88
SWIDTH 630 0
DWIDTH 14 0
BBX 14 16 0 0
BITMAP
8004
F87C
FCFC
FFFC
1FF0
0FC0
0780
0780
0780
0780
0FC0
1FE0
FFFC
FEFC
F87C
E01C
ENDCHAR
STARTCHAR 0059
ENCODING 89
SWIDTH 540 0
DWIDTH 12 0
BBX 11 16 1 0
BITMAP
F1E0
F1E0
F1E0
F1E0
F1E0
F1E0
F1E0
FFC0
7FC0
3F80
1F00
1E00
1E00
1E00
1E00
1E00
ENDCHAR
STARTCHAR 005A
ENCODING 90
SWIDTH 495 0
DWIDTH 11 0
BBX 12 16 0 0
BITMAP
7F80
7FE0
7FF0
7FE0
03E0
03C0
0780
0F80
1F00
1E00
3E00
7C00
7FF0
FFF0
FFF0
7FF0
ENDCHAR
STARTCHAR 005B
ENCODING 91
SWIDTH 315 0
DWIDTH 7 0
BBX 5 21 2 -5
BITMAP
F8
F8
E0
E0
E0
E0
E0
E0
E0
E0
E0
E0
E0
E0
E0
E0
E0
E0
E0
F8
F8
ENDCHAR
STARTCHAR 005C
ENCODING 92
SWIDTH 270 0
DWIDTH 6 0
BBX 8 18 -1 -2
BITMAP
C0
60
60
60
30
30
30
18
18
18
18
0C
0C
0C
06
06
06
03
ENDCHAR
STARTCHAR 005D
ENCODING 93
SWIDTH 315 0
DWIDTH 7 0
BBX 5 21 1 -5
BITMAP
F8
F8
38
38
38
38
38
38
38
38
38
38
38
38
38
38
38
38
38
F8
F8
ENDCHAR
STARTCHAR 005E
ENCODING 94
SWIDTH 990 0
DWIDTH 22 0
BBX 12 6 5 10
BITMAP
0F00
1F80
1FC0
39C0
70E0
E070
ENDCHAR
STARTCHAR 005F
ENCODING 95
SWIDTH 495 0
DWIDTH 11 0
BBX 11 2 0 -5
BITMAP
FFE0
FFE0
ENDCHAR
STARTCHAR 0060
ENCODING 96
SWIDTH 495 0
DWIDTH 11 0
BBX 4 4 3 12
BITMAP
E0
60
30
10
ENDCHAR
STARTCHAR 0061
ENCODING 97
SWIDTH 540 0
DWIDTH 12 0
BBX 11 11 1 0
BITMAP
3F00
7F80
FFC0
F3C0
E1E0
E1E0
E1E0
F3E0
FFE0
7FE0
3FE0
ENDCHAR
STARTCHAR 0062
ENCODING 98
SWIDTH 540 0
DWIDTH 12 0
BBX 11 16 1 0
BITMAP
E000
E000
E000
E000
E000
EF80
EFC0
EFC0
E1E0
E1E0
E1E0
F1E0
F3E0
7FC0
7F80
1F00
ENDCHAR
STARTCHAR 0063
ENCODING 99
SWIDTH 360 0
DWIDTH 8 0
BBX 7 11 1 0
BITMAP
1E
7E
FE
F8
E0
E0
E0
F8
FE
7E
1E
ENDCHAR
STARTCHAR 0064
ENCODING 100
SWIDTH 540 0
DWIDTH 12 0
BBX 11 16 1 0
BITMAP
01E0
01E0
01E0
01E0
01E0
3FE0
7FE0
FFE0
F3E0
E1E0
E1E0
E1E0
F3C0
FFC0
7F80
3F00
ENDCHAR
STARTCHAR 0065
ENCODING 101
SWIDTH 540 0
DWIDTH 12 0
BBX 11 11 1 0
BITMAP
3F00
7F80
FFC0
E3C0
EF00
EE00
E4C0
F1E0
FFC0
7F80
3F00
ENDCHAR
STARTCHAR 0066
ENCODING 102
SWIDTH 315 0
DWIDTH 7 0
BBX 7 16 1 0
BITMAP
0E
7E
7E
FE
E0
FE
FE
FE
E0
E0
E0
E0
E0
E0
E0
E0
ENDCHAR
STARTCHAR 0067
ENCODING 103
SWIDTH 540 0
DWIDTH 12 0
BBX 11 16 1 -5
BITMAP
3F00
7F80
FFC0
F3C0
E1E0
E1E0
E1E0
F3E0
FFE0
7FE0
1FE0
01E0
43C0
7FC0
7F80
7F00
ENDCHAR
STARTCHAR 0068
ENCODING 104
SWIDTH 540 0
DWIDTH 12 0
BBX 10 16 1 0
BITMAP
E000
E000
E000
E000
E000
EF00
FF80
FFC0
F3C0
E1C0
E1C0
E1C0
E1C0
E1C0
E1C0
E1C0
ENDCHAR
STARTCHAR 0069
ENCODING 105
SWIDTH 225 0
DWIDTH 5 0
BBX 4 16 1 0
BITMAP
E0
F0
F0
E0
00
F0
F0
F0
F0
F0
F0
F0
F0
F0
F0
F0
ENDCHAR
STARTCHAR 006A
ENCODING 106
SWIDTH 225 0
DWIDTH 5 0
BBX 7 21 -2 -5
BITMAP
1C
1E
1E
1C
00
1E
1E
1E
1E
1E
1E
1E
1E
1E
1E
1E
1E
FC
FC
F8
F0
ENDCHAR
STARTCHAR 006B
ENCODING 107
SWIDTH 495 0
DWIDTH 11 0
BBX 10 16 1 0
BITMAP
E000
E000
E000
E000
E000
E3C0
E380
E780
EF80
FF00
FF80
FFC0
E3C0
E3C0
E3C0
E3C0
ENDCHAR
STARTCHAR 006C
ENCODING 108
SWIDTH 225 0
DWIDTH 5 0
BBX 4 16 1 0
BITMAP
F0
F0
F0
F0
F0
F0
F0
F0
F0
F0
F0
F0
F0
F0
F0
F0
ENDCHAR
STARTCHAR 006D
ENCODING 109
SWIDTH 765 0
DWIDTH 17 0
BBX 16 11 1 0
BITMAP
3E7C
7FFE
FFFE
F3CF
E3CF
E3CF
E3CF
E3CF
E3CF
E3CF
E3CF
ENDCHAR
STARTCHAR 006E
ENCODING 110
SWIDTH 495 0
DWIDTH 11 0
BBX 10 11 1 0
BITMAP
3F00
7F80
FF80
F3C0
E1C0
E1C0
E1C0
E1C0
E1C0
E1C0
E1C0
ENDCHAR
STARTCHAR 006F
ENCODING 111
SWIDTH 540 0
DWIDTH 12 0
BBX 11 11 1 0
BITMAP
3F00
7F80
FFC0
F3C0
E1E0
E1E0
E1E0
F3C0
FFC0
7F80
3F00
ENDCHAR
STARTCHAR 0070
ENCODING 112
SWIDTH 540 0
DWIDTH 12 0
BBX 11 16 1 -5
BITMAP
1F00
7F80
7FC0
F3E0
F1E0
E1E0
E1E0
E3E0
EFC0
EF80
EF00
E000
E000
E000
E000
E000
ENDCHAR
STARTCHAR 0071
ENCODING 113
SWIDTH 540 0
DWIDTH 12 0
BBX 11 16 1 -5
BITMAP
3F00
7F80
FFC0
F3C0
E1E0
E1E0
E1E0
F3E0
FFE0
7FE0
3FE0
01E0
01E0
01E0
01E0
01E0
ENDCHAR
STARTCHAR 0072
ENCODING 114
SWIDTH 360 0
DWIDTH 8 0
BBX 7 11 1 0
BITMAP
EE
FE
FE
F8
F0
F0
E0
E0
E0
E0
E0
ENDCHAR
STARTCHAR 0073
ENCODING 115
SWIDTH 405 0
DWIDTH 9 0
BBX 8 11 1 0
BITMAP
7F
FF
FF
E0
F8
7E
1F
0F
FF
FF
FE
ENDCHAR
STARTCHAR 0074
ENCODING 116
SWIDTH 315 0
DWIDTH 7 0
BBX 6 14 1 0
BITMAP
E0
E0
E0
FC
FC
FC
E0
E0
E0
E0
F0
FC
7C
3C
ENDCHAR
STARTCHAR 0075
ENCODING 117
SWIDTH 495 0
DWIDTH 11 0
BBX 10 11 1 0
BITMAP
E1C0
E1C0
E1C0
E1C0
E1C0
E1C0
E1C0
F3C0
FF80
7F80
3F00
ENDCHAR
STARTCHAR 0076
ENCODING 118
SWIDTH 450 0
DWIDTH 10 0
BBX 11 11 0 0
BITMAP
E1E0
F1C0
71C0
73C0
7B80
3B80
3B80
3F00
1F00
1F00
0E00
ENDCHAR
STARTCHAR 0077
ENCODING 119
SWIDTH 765 0
DWIDTH 17 0
BBX 16 11 1 0
BITMAP
E3CF
E3CF
E3CF
E3CF
E3CF
E3CF
E3CF
F3CF
FFFE
7FFE
3E7C
ENDCHAR
STARTCHAR 0078
ENCODING 120
SWIDTH 405 0
DWIDTH 9 0
BBX 10 11 0 0
BITMAP
E1C0
FFC0
FFC0
3F00
1E00
1E00
1E00
3F00
FFC0
FFC0
E1C0
ENDCHAR
STARTCHAR 0079
ENCODING 121
SWIDTH 495 0
DWIDTH 11 0
BBX 10 16 1 -5
BITMAP
E1C0
E1C0
E1C0
E1C0
E1C0
E1C0
E1C0
F3C0
FF80
7F80
3F00
1E00
1E00
1E00
1E00
1E00
ENDCHAR
STARTCHAR 007A
ENCODING 122
SWIDTH 450 0
DWIDTH 10 0
BBX 10 11 0 0
BITMAP
7F80
7FC0
7FC0
0780
0F00
1E00
3C00
7800
FFC0
FFC0
7FC0
ENDCHAR
STARTCHAR 007B
ENCODING 123
SWIDTH 495 0
DWIDTH 11 0
BBX 8 21 2 -5
BITMAP
0F
1F
3F
3C
38
38
38
38
38
F8
F0
F8
38
38
38
38
38
3C
1F
1F
02
ENDCHAR
STARTCHAR 007C
ENCODING 124
SWIDTH 495 0
DWIDTH 11 0
BBX 3 22 4 -5
BITMAP
E0
E0
E0
E0
E0
E0
E0
E0
E0
E0
E0
E0
E0
E0
E0
E0
E0
E0
E0
E0
E0
E0
ENDCHAR
STARTCHAR 007D
ENCODING 125
SWIDTH 495 0
DWIDTH 11 0
BBX 8 21 1 -5
BITMAP
F8
FC
FC
1C
1C
1C
1C
1C
1C
1F
0F
1F
1C
1C
1C
1C
1C
3C
FC
F8
40
ENDCHAR
STARTCHAR 007E
ENCODING 126
SWIDTH 810 0
DWIDTH 18 0
BBX 15 4 2 4
BITMAP
1C02
7F8E
FFFE
C1FC
ENDCHAR
STARTCHAR 0080
ENCODING 128
SWIDTH 540 0
DWIDTH 12 0
BBX 12 16 0 0
BITMAP
0030
03F0
0FF0
1FF0
1F00
3C00
FFE0
3C00
3C00
FFC0
3C00
1E00
1F80
0FF0
07F0
01F0
ENDCHAR
STARTCHAR 00A0
ENCODING 160
SWIDTH 540 0
DWIDTH 12 0
BBX 0 0 0 0
BITMAP
ENDCHAR
STARTCHAR 00A1
ENCODING 161
SWIDTH 315 0
DWIDTH 7 0
BBX 5 16 1 0
BITMAP
70
78
F8
78
20
70
70
70
70
78
78
78
78
78
78
78
ENDCHAR
STARTCHAR 00A2
ENCODING 162
SWIDTH 540 0
DWIDTH 12 0
BBX 8 15 2 0
BITMAP
0C
0C
0C
3F
7F
78
F0
E0
F0
7F
7F
1F
0C
0C
0C
ENDCHAR
STARTCHAR 00A3
ENCODING 163
SWIDTH 540 0
DWIDTH 12 0
BBX 12 16 0 0
BITMAP
0780
0F80
1F80
1F80
3C00
3C00
7F00
7F00
7F00
3C70
3C70
3CF0
FFF0
FFE0
FFE0
FF80
ENDCHAR
STARTCHAR 00A4
ENCODING 164
SWIDTH 540 0
DWIDTH 12 0
BBX 12 16 0 0
BITMAP
0030
03F0
0FF0
1FF0
1F00
3C00
FFE0
3C00
3C00
FFC0
3C00
1E00
1F80
0FF0
07F0
01F0
ENDCHAR
STARTCHAR 00A5
ENCODING 165
SWIDTH 585 0
DWIDTH 13 0
BBX 13 16 0 0
BITMAP
F078
7078
7870
78F0
38E0
FDF8
1DC0
1FC0
FFF8
FFF8
0700
0700
0700
0700
0700
0700
ENDCHAR
STARTCHAR 00A6
ENCODING 166
SWIDTH 495 0
DWIDTH 11 0
BBX 3 20 4 -4
BITMAP
E0
E0
E0
E0
E0
E0
E0
E0
E0
00
00
00
E0
E0
E0
E0
E0
E0
E0
E0
ENDCHAR
STARTCHAR 00A7
ENCODING 167
SWIDTH 495 0
DWIDTH 11 0
BBX 10 18 1 -2
BITMAP
0F80
7F80
7F80
7F80
7000
7800
7E00
7F80
E3C0
79C0
7FC0
1F80
0780
03C0
7FC0
7FC0
7F80
7E00
ENDCHAR
STARTCHAR 00A8
ENCODING 168
SWIDTH 495 0
DWIDTH 11 0
BBX 7 3 2 13
BITMAP
44
EE
EE
ENDCHAR
STARTCHAR 00A9
ENCODING 169
SWIDTH 810 0
DWIDTH 18 0
BBX 16 16 1 0
BITMAP
07E0
1E38
380C
23C6
67F3
4E33
CC01
CC01
CC01
CC31
4E33
67F3
23C6
380C
1E38
07E0
ENDCHAR
STARTCHAR 00AA
ENCODING 170
SWIDTH 405 0
DWIDTH 9 0
BBX 9 8 0 8
BITMAP
1C00
7F00
7F00
E380
E380
7380
7F80
3F80
ENDCHAR
STARTCHAR 00AB
ENCODING 171
SWIDTH 540 0
DWIDTH 12 0
BBX 10 7 1 2
BITMAP
19C0
3380
7700
E600
7700
3380
19C0
ENDCHAR
STARTCHAR 00AC
ENCODING 172
SWIDTH 810 0
DWIDTH 18 0
BBX 13 5 3 4
BITMAP
FFF8
FFF8
0038
0038
0038
ENDCHAR
STARTCHAR 00AD
ENCODING 173
SWIDTH 315 0
DWIDTH 7 0
BBX 6 3 1 4
BITMAP
FC
FC
FC
ENDCHAR
STARTCHAR 00AE
ENCODING 174
SWIDTH 810 0
DWIDTH 18 0
BBX 16 16 1 0
BITMAP
07E0
1E38
380C
27C6
67F3
4633
C631
C7F1
C7C1
C6E1
4663
6673
2006
380C
1E38
07E0
ENDCHAR
STARTCHAR 00AF
ENCODING 175
SWIDTH 495 0
DWIDTH 11 0
BBX 7 2 2 13
BITMAP
FE
FE
ENDCHAR
STARTCHAR 00B0
ENCODING 176
SWIDTH 315 0
DWIDTH 7 0
BBX 7 7 0 9
BITMAP
38
7C
C6
C6
C6
7C
38
ENDCHAR
STARTCHAR 00B1
ENCODING 177
SWIDTH 810 0
DWIDTH 18 0
BBX 13 13 3 0
BITMAP
0700
0700
0700
FFF8
FFF8
FFF8
0700
0700
0700
0000
0000
FFF8
FFF8
ENDCHAR
STARTCHAR 00B2
ENCODING 178
SWIDTH 360 0
DWIDTH 8 0
BBX 7 10 1 6
BITMAP
30
FC
CC
CC
DC
38
70
E0
FE
FE
ENDCHAR
STARTCHAR 00B3
ENCODING 179
SWIDTH 360 0
DWIDTH 8 0
BBX 7 10 1 6
BITMAP
F0
FC
FC
38
78
7C
0E
0E
FC
F8
ENDCHAR
STARTCHAR 00B4
ENCODING 180
SWIDTH 495 0
DWIDTH 11 0
BBX 4 4 4 12
BITMAP
30
60
C0
C0
ENDCHAR
STARTCHAR 00B5
ENCODING 181
SWIDTH 630 0
DWIDTH 14 0
BBX 14 17 0 -5
BITMAP
3C3C
3C38
3C78
3878
7878
7878
7878
7870
78F0
7FF0
FFF0
F7F0
F000
F000
F000
F000
E000
ENDCHAR
STARTCHAR 00B6
ENCODING 182
SWIDTH 495 0
DWIDTH 11 0
BBX 11 16 0 0
BITMAP
3FE0
7CC0
FCC0
FCC0
FCC0
7CC0
7CC0
0CC0
0CC0
0CC0
0CC0
0CC0
0CC0
0CC0
0CC0
0CC0
ENDCHAR
STARTCHAR 00B7
ENCODING 183
SWIDTH 270 0
DWIDTH 6 0
BBX 4 4 1 6
BITMAP
70
F0
F0
F0
ENDCHAR
STARTCHAR 00B8
ENCODING 184
SWIDTH 495 0
DWIDTH 11 0
BBX 6 6 3 -5
BITMAP
30
20
38
0C
8C
F8
ENDCHAR
STARTCHAR 00B9
ENCODING 185
SWIDTH 360 0
DWIDTH 8 0
BBX 4 10 2 6
BITMAP
F0
F0
F0
30
30
30
30
30
30
30
ENDCHAR
STARTCHAR 00BA
ENCODING 186
SWIDTH 405 0
DWIDTH 9 0
BBX 9 8 0 8
BITMAP
1C00
3F00
7F00
E380
E380
7380
7F00
3E00
ENDCHAR
STARTCHAR 00BB
ENCODING 187
SWIDTH 540 0
DWIDTH 12 0
BBX 10 7 1 2
BITMAP
E600
7300
3B80
19C0
3B80
7300
E600
ENDCHAR
STARTCHAR 00BC
ENCODING 188
SWIDTH 855 0
DWIDTH 19 0
BBX 17 16 2 0
BITMAP
F01800
F01800
703000
707000
706000
70C000
70C000
718600
718F00
030D00
071B00
063B00
0C3F80
0C3F80
180300
380300
ENDCHAR
STARTCHAR 00BD
ENCODING 189
SWIDTH 855 0
DWIDTH 19 0
BBX 17 16 2 0
BITMAP
F01800
F01800
703000
707000
706000
70C000
70C000
718E00
719F00
033B80
073B80
061700
0C0E00
0C1C00
183F80
383F80
ENDCHAR
STARTCHAR 00BE
ENCODING 190
SWIDTH 855 0
DWIDTH 19 0
BBX 18 16 1 0
BITMAP
F00C00
FC0C00
1C1800
383800
783000
1C6000
0C6000
FCC300
F8C780
018680
038D80
031D80
061FC0
061FC0
0C0180
1C0180
ENDCHAR
STARTCHAR 00BF
ENCODING 191
SWIDTH 495 0
DWIDTH 11 0
BBX 10 16 1 0
BITMAP
0C00
1E00
1E00
1E00
0C00
1E00
1E00
3E00
7E00
FE00
F000
F000
F3C0
FFC0
7F80
3F00
ENDCHAR
STARTCHAR 00C0
ENCODING 192
SWIDTH 585 0
DWIDTH 13 0
BBX 12 21 1 0
BITMAP
1C00
0C00
0600
0200
0000
0F00
3FC0
7FE0
7FE0
F9F0
F0F0
F0F0
F7F0
F7F0
F7F0
F0F0
F0F0
F0F0
F0F0
F0F0
F0F0
ENDCHAR
STARTCHAR 00C1
ENCODING 193
SWIDTH 585 0
DWIDTH 13 0
BBX 12 21 1 0
BITMAP
0380
0300
0600
0C00
0000
0F00
3FC0
7FE0
7FE0
F9F0
F0F0
F0F0
F7F0
F7F0
F7F0
F0F0
F0F0
F0F0
F0F0
F0F0
F0F0
ENDCHAR
STARTCHAR 00C2
ENCODING 194
SWIDTH 585 0
DWIDTH 13 0
BBX 12 20 1 0
BITMAP
0F00
0F00
1980
1080
0F00
3FC0
7FE0
7FE0
F9F0
F0F0
F0F0
F7F0
F7F0
F7F0
F0F0
F0F0
F0F0
F0F0
F0F0
F0F0
ENDCHAR
STARTCHAR 00C3
ENCODING 195
SWIDTH 585 0
DWIDTH 13 0
BBX 12 20 1 0
BITMAP
1F80
1F80
0000
0000
0F00
3FC0
7FE0
7FE0
F9F0
F0F0
F0F0
F7F0
F7F0
F7F0
F0F0
F0F0
F0F0
F0F0
F0F0
F0F0
ENDCHAR
STARTCHAR 00C4
ENCODING 196
SWIDTH 585 0
DWIDTH 13 0
BBX 12 20 1 0
BITMAP
1980
1980
0000
0000
0F00
3FC0
7FE0
7FE0
F9F0
F0F0
F0F0
F7F0
F7F0
F7F0
F0F0
F0F0
F0F0
F0F0
F0F0
F0F0
ENDCHAR
STARTCHAR 00C5
ENCODING 197
SWIDTH 585 0
DWIDTH 13 0
BBX 12 21 1 0
BITMAP
0F00
1980
1980
1980
0F00
0F00
3FC0
7FE0
7FE0
F9F0
F0F0
F0F0
F7F0
F7F0
F7F0
F0F0
F0F0
F0F0
F0F0
F0F0
F0F0
ENDCHAR
STARTCHAR 00C6
ENCODING 198
SWIDTH 855 0
DWIDTH 19 0
BBX 17 16 1 0
BITMAP
0F0080
3F8F80
7FFF80
7FFF80
F1FC00
F0F000
F0F000
F7FF80
F7FF80
F7FF80
F0F000
F0F800
F0FF80
F0FF80
F0FF80
F0F780
ENDCHAR
STARTCHAR 00C7
ENCODING 199
SWIDTH 495 0
DWIDTH 11 0
BBX 10 21 1 -5
BITMAP
00C0
0FC0
3FC0
7FC0
7C00
F800
F000
F000
F000
F000
F000
F800
7FC0
3FC0
1FC0
07C0
0400
0700
0180
1180
1F00
ENDCHAR
STARTCHAR 00C8
ENCODING 200
SWIDTH 495 0
DWIDTH 11 0
BBX 10 21 1 0
BITMAP
0C00
0E00
0600
0300
0000
00C0
0FC0
3FC0
7FC0
7C00
F000
FFC0
FFC0
FFC0
FFC0
F000
F800
7FC0
3FC0
1FC0
07C0
ENDCHAR
STARTCHAR 00C9
ENCODING 201
SWIDTH 495 0
DWIDTH 11 0
BBX 10 21 1 0
BITMAP
0380
0300
0600
0600
0000
00C0
0FC0
3FC0
7FC0
7C00
F000
FFC0
FFC0
FFC0
FFC0
F000
F800
7FC0
3FC0
1FC0
07C0
ENDCHAR
STARTCHAR 00CA
ENCODING 202
SWIDTH 495 0
DWIDTH 11 0
BBX 10 20 1 0
BITMAP
0F00
0D80
1980
10C0
00C0
0FC0
3FC0
7FC0
7C00
F000
FFC0
FFC0
FFC0
FFC0
F000
F800
7FC0
3FC0
1FC0
07C0
ENDCHAR
STARTCHAR 00CB
ENCODING 203
SWIDTH 495 0
DWIDTH 11 0
BBX 10 20 1 0
BITMAP
1D80
1DC0
0000
0000
00C0
0FC0
3FC0
7FC0
7C00
F000
FFC0
FFC0
FFC0
FFC0
F000
F800
7FC0
3FC0
1FC0
07C0
ENDCHAR
STARTCHAR 00CC
ENCODING 204
SWIDTH 270 0
DWIDTH 6 0
BBX 5 21 0 0
BITMAP
E0
70
30
18
00
78
78
78
78
78
78
78
78
78
78
78
78
78
78
78
78
ENDCHAR
STARTCHAR 00CD
ENCODING 205
SWIDTH 270 0
DWIDTH 6 0
BBX 5 21 1 0
BITMAP
38
30
60
40
00
F0
F0
F0
F0
F0
F0
F0
F0
F0
F0
F0
F0
F0
F0
F0
F0
ENDCHAR
STARTCHAR 00CE
ENCODING 206
SWIDTH 270 0
DWIDTH 6 0
BBX 6 21 0 0
BITMAP
38
78
4C
C4
00
78
78
78
78
78
78
78
78
78
78
78
78
78
78
78
78
ENDCHAR
STARTCHAR 00CF
ENCODING 207
SWIDTH 270 0
DWIDTH 6 0
BBX 6 20 0 0
BITMAP
EC
EC
00
00
78
78
78
78
78
78
78
78
78
78
78
78
78
78
78
78
ENDCHAR
STARTCHAR 00D0
ENCODING 208
SWIDTH 630 0
DWIDTH 14 0
BBX 14 16 0 0
BITMAP
7800
7FC0
7FE0
7FF0
79F8
7878
787C
FE3C
FE3C
783C
7878
78F8
7BF0
7BF0
7BE0
7B80
ENDCHAR
STARTCHAR 00D1
ENCODING 209
SWIDTH 630 0
DWIDTH 14 0
BBX 13 20 1 0
BITMAP
0FC0
1F80
0000
0000
7078
F878
F878
FC78
FE78
FE78
FF78
FF78
F7F8
F7F8
F3F8
F1F8
F1F8
F0F8
F0F8
F070
ENDCHAR
STARTCHAR 00D2
ENCODING 210
SWIDTH 765 0
DWIDTH 17 0
BBX 16 21 1 0
BITMAP
0600
0300
0180
0180
0000
07C0
1FF0
3FF8
7FFC
7C3E
F81E
F01E
F00F
F00F
F01E
F01E
F83E
7FFC
3FFC
1FF8
0FE0
ENDCHAR
STARTCHAR 00D3
ENCODING 211
SWIDTH 765 0
DWIDTH 17 0
BBX 16 21 1 0
BITMAP
00C0
01C0
0180
0300
0000
07C0
1FF0
3FF8
7FFC
7C3E
F81E
F01E
F00F
F00F
F01E
F01E
F83E
7FFC
3FFC
1FF8
0FE0
ENDCHAR
STARTCHAR 00D4
ENCODING 212
SWIDTH 765 0
DWIDTH 17 0
BBX 16 20 1 0
BITMAP
0380
06C0
0640
0C60
07C0
1FF0
3FF8
7FFC
7C3E
F81E
F01E
F00F
F00F
F01E
F01E
F83E
7FFC
3FFC
1FF8
0FE0
ENDCHAR
STARTCHAR 00D5
ENCODING 213
SWIDTH 765 0
DWIDTH 17 0
BBX 16 20 1 0
BITMAP
07E0
0FC0
0000
0000
07C0
1FF0
3FF8
7FFC
7C3E
F81E
F01E
F00F
F00F
F01E
F01E
F83E
7FFC
3FFC
1FF8
0FE0
ENDCHAR
STARTCHAR 00D6
ENCODING 214
SWIDTH 765 0
DWIDTH 17 0
BBX 16 20 1 0
BITMAP
0EE0
0EE0
0000
0000
07C0
1FF0
3FF8
7FFC
7C3E
F81E
F01E
F00F
F00F
F01E
F01E
F83E
7FFC
3FFC
1FF8
0FE0
ENDCHAR
STARTCHAR 00D7
ENCODING 215
SWIDTH 810 0
DWIDTH 18 0
BBX 13 13 3 0
BITMAP
4010
E038
7070
38E0
1DC0
0F80
0700
0F80
1DC0
38E0
7070
E038
4010
ENDCHAR
STARTCHAR 00D8
ENCODING 216
SWIDTH 765 0
DWIDTH 17 0
BBX 16 17 1 0
BITMAP
07C6
1FFE
3FFC
7FFC
7C7E
F07E
F0DE
F1CF
E38F
F70E
FE1E
FC3E
7FFC
7FFC
7FF8
EFE0
4000
ENDCHAR
STARTCHAR 00D9
ENCODING 217
SWIDTH 585 0
DWIDTH 13 0
BBX 12 21 1 0
BITMAP
1C00
0C00
0600
0200
0000
F0F0
F0F0
F0F0
F0F0
F0F0
F0F0
F0F0
F0F0
F0F0
F0F0
F0F0
F0F0
FFE0
7FE0
3FC0
1F80
ENDCHAR
STARTCHAR 00DA
ENCODING 218
SWIDTH 585 0
DWIDTH 13 0
BBX 12 21 1 0
BITMAP
0380
0300
0600
0C00
0000
F0F0
F0F0
F0F0
F0F0
F0F0
F0F0
F0F0
F0F0
F0F0
F0F0
F0F0
F0F0
FFE0
7FE0
3FC0
1F80
ENDCHAR
STARTCHAR 00DB
ENCODING 219
SWIDTH 585 0
DWIDTH 13 0
BBX 12 21 1 0
BITMAP
0F00
0F00
1980
1180
0000
F0F0
F0F0
F0F0
F0F0
F0F0
F0F0
F0F0
F0F0
F0F0
F0F0
F0F0
F0F0
FFE0
7FE0
3FC0
1F80
ENDCHAR
STARTCHAR 00DC
ENCODING 220
SWIDTH 585 0
DWIDTH 13 0
BBX 12 20 1 0
BITMAP
1980
1980
0000
0000
F0F0
F0F0
F0F0
F0F0
F0F0
F0F0
F0F0
F0F0
F0F0
F0F0
F0F0
F0F0
FFE0
7FE0
3FC0
1F80
ENDCHAR
STARTCHAR 00DD
ENCODING 221
SWIDTH 540 0
DWIDTH 12 0
BBX 11 21 1 0
BITMAP
0700
0600
0C00
0C00
0000
F1E0
F1E0
F1E0
F1E0
F1E0
F1E0
F1E0
FFC0
7FC0
3F80
1F00
1E00
1E00
1E00
1E00
1E00
ENDCHAR
STARTCHAR 00DE
ENCODING 222
SWIDTH 540 0
DWIDTH 12 0
BBX 11 16 1 0
BITMAP
F000
F000
FE00
FF80
FFC0
FFE0
F1E0
F1E0
F1E0
F7E0
F7E0
F7C0
F700
F000
F000
F000
ENDCHAR
STARTCHAR 00DF
ENCODING 223
SWIDTH 585 0
DWIDTH 13 0
BBX 13 16 0 0
BITMAP
0E00
3F80
3FC0
79C0
79C0
F9C0
FB80
FBE0
79F0
78F0
7878
7878
7878
7FF0
7FF0
7FC0
ENDCHAR
STARTCHAR 00E0
ENCODING 224
SWIDTH 540 0
DWIDTH 12 0
BBX 11 16 1 0
BITMAP
1800
0C00
0C00
0600
0000
3F00
7F80
FFC0
F3C0
E1E0
E1E0
E1E0
F3E0
FFE0
7FE0
3FE0
ENDCHAR
STARTCHAR 00E1
ENCODING 225
SWIDTH 540 0
DWIDTH 12 0
BBX 11 16 1 0
BITMAP
0700
0600
0C00
0800
0000
3F00
7F80
FFC0
F3C0
E1E0
E1E0
E1E0
F3E0
FFE0
7FE0
3FE0
ENDCHAR
STARTCHAR 00E2
ENCODING 226
SWIDTH 540 0
DWIDTH 12 0
BBX 11 16 1 0
BITMAP
0E00
1E00
1300
3180
0000
3F00
7F80
FFC0
F3C0
E1E0
E1E0
E1E0
F3E0
FFE0
7FE0
3FE0
ENDCHAR
STARTCHAR 00E3
ENCODING 227
SWIDTH 540 0
DWIDTH 12 0
BBX 11 16 1 0
BITMAP
0180
3F00
3700
0000
0000
3F00
7F80
FFC0
F3C0
E1E0
E1E0
E1E0
F3E0
FFE0
7FE0
3FE0
ENDCHAR
STARTCHAR 00E4
ENCODING 228
SWIDTH 540 0
DWIDTH 12 0
BBX 11 16 1 0
BITMAP
1100
3B80
3B00
0000
0000
3F00
7F80
FFC0
F3C0
E1E0
E1E0
E1E0
F3E0
FFE0
7FE0
3FE0
ENDCHAR
STARTCHAR 00E5
ENCODING 229
SWIDTH 540 0
DWIDTH 12 0
BBX 11 18 1 0
BITMAP
0E00
1F00
1100
1100
1B00
0E00
0000
3F00
7F80
FFC0
F3C0
E1E0
E1E0
E1E0
F3E0
FFE0
7FE0
3FE0
ENDCHAR
STARTCHAR 00E6
ENCODING 230
SWIDTH 810 0
DWIDTH 18 0
BBX 18 11 0 0
BITMAP
7F3F00
7FFF80
37FFC0
01E3C0
1FCFC0
7FCE00
71E800
F1E1C0
FFFFC0
7F7F80
3E3F00
ENDCHAR
STARTCHAR 00E7
ENCODING 231
SWIDTH 360 0
DWIDTH 8 0
BBX 7 16 1 -5
BITMAP
1E
7E
FE
F8
E0
E0
E0
F8
FE
7E
1E
08
1E
06
46
7E
ENDCHAR
STARTCHAR 00E8
ENCODING 232
SWIDTH 540 0
DWIDTH 12 0
BBX 11 16 1 0
BITMAP
3800
1C00
0C00
0600
0000
3F00
7F80
FFC0
E3C0
EF00
EE00
E4C0
F1E0
FFC0
7F80
3F00
ENDCHAR
STARTCHAR 00E9
ENCODING 233
SWIDTH 540 0
DWIDTH 12 0
BBX 11 16 1 0
BITMAP
0700
0600
0C00
0800
0000
3F00
7F80
FFC0
E3C0
EF00
EE00
E4C0
F1E0
FFC0
7F80
3F00
ENDCHAR
STARTCHAR 00EA
ENCODING 234
SWIDTH 540 0
DWIDTH 12 0
BBX 11 16 1 0
BITMAP
1E00
1E00
3300
2100
0000
3F00
7F80
FFC0
E3C0
EF00
EE00
E4C0
F1E0
FFC0
7F80
3F00
ENDCHAR
STARTCHAR 00EB
ENCODING 235
SWIDTH 540 0
DWIDTH 12 0
BBX 11 16 1 0
BITMAP
1300
3B00
3300
0000
0000
3F00
7F80
FFC0
E3C0
EF00
EE00
E4C0
F1E0
FFC0
7F80
3F00
ENDCHAR
STARTCHAR 00EC
ENCODING 236
SWIDTH 225 0
DWIDTH 5 0
BBX 5 16 0 0
BITMAP
E0
60
30
10
00
78
78
78
78
78
78
78
78
78
78
78
ENDCHAR
STARTCHAR 00ED
ENCODING 237
SWIDTH 225 0
DWIDTH 5 0
BBX 4 16 1 0
BITMAP
30
60
60
C0
00
F0
F0
F0
F0
F0
F0
F0
F0
F0
F0
F0
ENDCHAR
STARTCHAR 00EE
ENCODING 238
SWIDTH 225 0
DWIDTH 5 0
BBX 6 16 0 0
BITMAP
70
78
CC
8C
00
78
78
78
78
78
78
78
78
78
78
78
ENDCHAR
STARTCHAR 00EF
ENCODING 239
SWIDTH 225 0
DWIDTH 5 0
BBX 7 16 -1 0
BITMAP
44
EE
6E
00
00
3C
3C
3C
3C
3C
3C
3C
3C
3C
3C
3C
ENDCHAR
STARTCHAR 00F0
ENCODING 240
SWIDTH 495 0
DWIDTH 11 0
BBX 10 16 1 0
BITMAP
3800
3F00
1F80
7E00
2F00
0700
3F80
7BC0
F3C0
E1C0
E1C0
E1C0
F3C0
FFC0
7F80
3F00
ENDCHAR
STARTCHAR 00F1
ENCODING 241
SWIDTH 495 0
DWIDTH 11 0
BBX 10 16 1 0
BITMAP
0100
3F00
2E00
0000
0000
3F00
7F80
FF80
F3C0
E1C0
E1C0
E1C0
E1C0
E1C0
E1C0
E1C0
ENDCHAR
STARTCHAR 00F2
ENCODING 242
SWIDTH 540 0
DWIDTH 12 0
BBX 11 16 1 0
BITMAP
3800
1C00
0C00
0600
0000
3F00
7F80
FFC0
F3C0
E1E0
E1E0
E1E0
F3C0
FFC0
7F80
3F00
ENDCHAR
STARTCHAR 00F3
ENCODING 243
SWIDTH 540 0
DWIDTH 12 0
BBX 11 16 1 0
BITMAP
0700
0600
0C00
0800
0000
3F00
7F80
FFC0
F3C0
E1E0
E1E0
E1E0
F3C0
FFC0
7F80
3F00
ENDCHAR
STARTCHAR 00F4
ENCODING 244
SWIDTH 540 0
DWIDTH 12 0
BBX 11 16 1 0
BITMAP
1E00
1E00
3300
2100
0000
3F00
7F80
FFC0
F3C0
E1E0
E1E0
E1E0
F3C0
FFC0
7F80
3F00
ENDCHAR
STARTCHAR 00F5
ENCODING 245
SWIDTH 540 0
DWIDTH 12 0
BBX 11 16 1 0
BITMAP
0180
3F00
2E00
0000
0000
3F00
7F80
FFC0
F3C0
E1E0
E1E0
E1E0
F3C0
FFC0
7F80
3F00
ENDCHAR
STARTCHAR 00F6
ENCODING 246
SWIDTH 540 0
DWIDTH 12 0
BBX 11 16 1 0
BITMAP
1300
3B00
3300
0000
0000
3F00
7F80
FFC0
F3C0
E1E0
E1E0
E1E0
F3C0
FFC0
7F80
3F00
ENDCHAR
STARTCHAR 00F7
ENCODING 247
SWIDTH 810 0
DWIDTH 18 0
BBX 13 13 3 0
BITMAP
0600
0700
0700
0600
0000
FFF8
FFF8
FFF8
0000
0700
0F00
0700
0200
ENDCHAR
STARTCHAR 00F8
ENCODING 248
SWIDTH 540 0
DWIDTH 12 0
BBX 11 13 1 -1
BITMAP
0040
3FE0
7FC0
FFC0
F3C0
E7E0
EDE0
F9E0
FBC0
FFC0
FF80
FF00
8000
ENDCHAR
STARTCHAR 00F9
ENCODING 249
SWIDTH 495 0
DWIDTH 11 0
BBX 10 16 1 0
BITMAP
3800
1C00
0C00
0600
0000
E1C0
E1C0
E1C0
E1C0
E1C0
E1C0
E1C0
F3C0
FF80
7F80
3F00
ENDCHAR
STARTCHAR 00FA
ENCODING 250
SWIDTH 495 0
DWIDTH 11 0
BBX 10 16 1 0
BITMAP
0700
0E00
0C00
1800
0000
E1C0
E1C0
E1C0
E1C0
E1C0
E1C0
E1C0
F3C0
FF80
7F80
3F00
ENDCHAR
STARTCHAR 00FB
ENCODING 251
SWIDTH 495 0
DWIDTH 11 0
BBX 10 16 1 0
BITMAP
1E00
1E00
3300
2100
0000
E1C0
E1C0
E1C0
E1C0
E1C0
E1C0
E1C0
F3C0
FF80
7F80
3F00
ENDCHAR
STARTCHAR 00FC
ENCODING 252
SWIDTH 495 0
DWIDTH 11 0
BBX 10 16 1 0
BITMAP
1200
3700
3300
0000
0000
E1C0
E1C0
E1C0
E1C0
E1C0
E1C0
E1C0
F3C0
FF80
7F80
3F00
ENDCHAR
STARTCHAR 00FD
ENCODING 253
SWIDTH 495 0
DWIDTH 11 0
BBX 10 21 1 -5
BITMAP
0700
0E00
0C00
1800
0000
E1C0
E1C0
E1C0
E1C0
E1C0
E1C0
E1C0
F3C0
FF80
7F80
3F00
1E00
1E00
1E00
1E00
1E00
ENDCHAR
STARTCHAR 00FE
ENCODING 254
SWIDTH 540 0
DWIDTH 12 0
BBX 11 21 1 -5
BITMAP
E000
E000
E000
E000
E000
FF00
FF80
FFC0
F3E0
F1E0
E1E0
E1E0
E3E0
EFC0
EF80
EF00
E000
E000
E000
E000
E000
ENDCHAR
STARTCHAR 00FF
ENCODING 255
SWIDTH 495 0
DWIDTH 11 0
BBX 10 21 1 -5
BITMAP
1200
3700
3300
0000
0000
E1C0
E1C0
E1C0
E1C0
E1C0
E1C0
E1C0
F3C0
FF80
7F80
3F00
1E00
1E00
1E00
1E00
1E00
ENDCHAR
STARTCHAR 0102
ENCODING 258
SWIDTH 585 0
DWIDTH 13 0
BBX 12 20 1 0
BITMAP
1080
1980
0F00
0000
0F00
3FC0
7FE0
7FE0
F9F0
F0F0
F0F0
F7F0
F7F0
F7F0
F0F0
F0F0
F0F0
F0F0
F0F0
F0F0
ENDCHAR
STARTCHAR 0103
ENCODING 259
SWIDTH 540 0
DWIDTH 12 0
BBX 11 16 1 0
BITMAP
2180
3300
1F00
0000
0000
3F00
7F80
FFC0
F3C0
E1E0
E1E0
E1E0
F3E0
FFE0
7FE0
3FE0
ENDCHAR
STARTCHAR 0106
ENCODING 262
SWIDTH 495 0
DWIDTH 11 0
BBX 10 21 1 0
BITMAP
0380
0300
0600
0600
0000
00C0
0FC0
3FC0
7FC0
7C00
F800
F000
F000
F000
F000
F000
F800
7FC0
3FC0
1FC0
07C0
ENDCHAR
STARTCHAR 0107
ENCODING 263
SWIDTH 360 0
DWIDTH 8 0
BBX 7 16 1 0
BITMAP
06
0C
18
18
00
1E
7E
FE
F8
E0
E0
E0
F8
FE
7E
1E
ENDCHAR
STARTCHAR 010C
ENCODING 268
SWIDTH 495 0
DWIDTH 11 0
BBX 10 21 1 0
BITMAP
1880
0D80
0F00
0700
0000
00C0
0FC0
3FC0
7FC0
7C00
F800
F000
F000
F000
F000
F000
F800
7FC0
3FC0
1FC0
07C0
ENDCHAR
STARTCHAR 010D
ENCODING 269
SWIDTH 360 0
DWIDTH 8 0
BBX 8 16 1 0
BITMAP
23
36
1E
1C
00
1E
7E
FE
F8
E0
E0
E0
F8
FE
7E
1E
ENDCHAR
STARTCHAR 0110
ENCODING 272
SWIDTH 630 0
DWIDTH 14 0
BBX 14 16 0 0
BITMAP
7800
7FC0
7FE0
7FF0
79F8
7878
787C
FE3C
FE3C
783C
7878
78F8
7BF0
7BF0
7BE0
7B80
ENDCHAR
STARTCHAR 0111
ENCODING 273
SWIDTH 540 0
DWIDTH 12 0
BBX 12 16 1 0
BITMAP
01E0
01E0
07F0
07F0
01E0
3FE0
7FE0
FFE0
F3E0
E1E0
E1E0
E1C0
F3C0
FFC0
7F80
3F00
ENDCHAR
STARTCHAR 011E
ENCODING 286
SWIDTH 765 0
DWIDTH 17 0
BBX 16 21 1 0
BITMAP
0C20
0C60
07C0
0380
0000
07C0
1FF0
3FFC
7FF8
7C30
F800
F1FF
F1FF
F1FE
F1FE
F01E
F83E
7FFC
3FFC
1FF8
0FE0
ENDCHAR
STARTCHAR 011F
ENCODING 287
SWIDTH 540 0
DWIDTH 12 0
BBX 11 21 1 -5
BITMAP
2180
3300
1F00
0000
0000
3F00
7F80
FFC0
F3C0
E1E0
E1E0
E1E0
F3E0
FFE0
7FE0
1FE0
01E0
43C0
7FC0
7F80
7F00
ENDCHAR
STARTCHAR 0128
ENCODING 296
SWIDTH 270 0
DWIDTH 6 0
BBX 6 20 0 0
BITMAP
7C
FC
00
00
78
78
78
78
78
78
78
78
78
78
78
78
78
78
78
78
ENDCHAR
STARTCHAR 0129
ENCODING 297
SWIDTH 225 0
DWIDTH 5 0
BBX 6 16 0 0
BITMAP
04
FC
B8
00
00
78
78
78
78
78
78
78
78
78
78
78
ENDCHAR
STARTCHAR 0130
ENCODING 304
SWIDTH 270 0
DWIDTH 6 0
BBX 4 21 1 0
BITMAP
20
70
60
00
00
F0
F0
F0
F0
F0
F0
F0
F0
F0
F0
F0
F0
F0
F0
F0
F0
ENDCHAR
STARTCHAR 0131
ENCODING 305
SWIDTH 225 0
DWIDTH 5 0
BBX 4 11 1 0
BITMAP
F0
F0
F0
F0
F0
F0
F0
F0
F0
F0
F0
ENDCHAR
STARTCHAR 0141
ENCODING 321
SWIDTH 405 0
DWIDTH 9 0
BBX 10 16 0 0
BITMAP
7800
7800
7800
7800
7A00
7E00
7E00
7C00
F800
F800
F800
7800
7FC0
3FC0
3FC0
0FC0
ENDCHAR
STARTCHAR 0142
ENCODING 322
SWIDTH 270 0
DWIDTH 6 0
BBX 6 16 0 0
BITMAP
78
78
78
78
78
7C
7C
7C
F8
F8
F8
78
78
78
78
78
ENDCHAR
STARTCHAR 0152
ENCODING 338
SWIDTH 1035 0
DWIDTH 23 0
BBX 21 16 1 0
BITMAP
07C008
1FF1F8
3FFBF8
7FFFF8
7C3F80
F81F00
F01FF8
F00FF8
F00FF8
F01FF8
F01E00
F83F00
7FFFF8
3FFFF8
1FF1F8
0FE078
ENDCHAR
STARTCHAR 0153
ENCODING 339
SWIDTH 855 0
DWIDTH 19 0
BBX 18 11 1 0
BITMAP
3F3E00
7FFF80
FFFF80
F3E7C0
E1CF00
E1CE00
E1E9C0
F3F3C0
FFFFC0
7FFF80
3F3F00
ENDCHAR
STARTCHAR 015E
ENCODING 350
SWIDTH 495 0
DWIDTH 11 0
BBX 10 21 1 -5
BITMAP
0780
7F80
FF80
FF80
F000
F000
FC00
7E00
3F80
0FC0
07C0
03C0
FFC0
FFC0
FF80
FF00
0400
0F00
0300
2300
3F00
ENDCHAR
STARTCHAR 015F
ENCODING 351
SWIDTH 405 0
DWIDTH 9 0
BBX 8 16 1 -5
BITMAP
7F
FF
FF
E0
F8
7E
1F
0F
FF
FF
FE
08
1C
06
46
7E
ENDCHAR
STARTCHAR 0160
ENCODING 352
SWIDTH 495 0
DWIDTH 11 0
BBX 10 21 1 0
BITMAP
2300
3300
1E00
1E00
0000
0780
7F80
FF80
FF80
F000
F000
FC00
7E00
3F80
0FC0
07C0
03C0
FFC0
FFC0
FF80
FF00
ENDCHAR
STARTCHAR 0161
ENCODING 353
SWIDTH 405 0
DWIDTH 9 0
BBX 8 16 1 0
BITMAP
66
6C
3C
38
00
7F
FF
FF
E0
F8
7E
1F
0F
FF
FF
FE
ENDCHAR
STARTCHAR 0168
ENCODING 360
SWIDTH 585 0
DWIDTH 13 0
BBX 12 20 1 0
BITMAP
1F80
1F00
0000
0000
F0F0
F0F0
F0F0
F0F0
F0F0
F0F0
F0F0
F0F0
F0F0
F0F0
F0F0
F0F0
FFE0
7FE0
3FC0
1F80
ENDCHAR
STARTCHAR 0169
ENCODING 361
SWIDTH 495 0
DWIDTH 11 0
BBX 10 16 1 0
BITMAP
0100
3F00
2E00
0000
0000
E1C0
E1C0
E1C0
E1C0
E1C0
E1C0
E1C0
F3C0
FF80
7F80
3F00
ENDCHAR
STARTCHAR 0178
ENCODING 376
SWIDTH 540 0
DWIDTH 12 0
BBX 11 20 1 0
BITMAP
3B80
3B80
0000
0000
F1E0
F1E0
F1E0
F1E0
F1E0
F1E0
F1E0
FFC0
7FC0
3F80
1F00
1E00
1E00
1E00
1E00
1E00
ENDCHAR
STARTCHAR 017D
ENCODING 381
SWIDTH 495 0
DWIDTH 11 0
BBX 12 21 0 0
BITMAP
1180
1980
0F00
0E00
0000
7F80
7FE0
7FF0
7FE0
03E0
03C0
0780
0F80
1F00
1E00
3E00
7C00
7FF0
FFF0
FFF0
7FF0
ENDCHAR
STARTCHAR 017E
ENCODING 382
SWIDTH 450 0
DWIDTH 10 0
BBX 10 16 0 0
BITMAP
3300
1B00
1E00
0C00
0000
7F80
7FC0
7FC0
0780
0F00
1E00
3C00
7800
FFC0
FFC0
7FC0
ENDCHAR
STARTCHAR 0192
ENCODING 402
SWIDTH 540 0
DWIDTH 12 0
BBX 12 21 0 -5
BITMAP
00F0
03F0
03F0
07C0
0780
0780
7FE0
7FE0
7FE0
0F00
0F00
0F00
0F00
0E00
0E00
0E00
1E00
1E00
FE00
FC00
F000
ENDCHAR
STARTCHAR 01A0
ENCODING 416
SWIDTH 765 0
DWIDTH 17 0
BBX 16 17 1 0
BITMAP
0007
07C6
1FFE
3FFC
7FFC
7C3E
F81E
F01E
F00F
F00F
F01E
F01E
F83E
7FFC
3FFC
1FF8
0FE0
ENDCHAR
STARTCHAR 01A1
ENCODING 417
SWIDTH 540 0
DWIDTH 12 0
BBX 12 13 1 0
BITMAP
0070
0060
3FE0
7FC0
FFC0
F3C0
E1E0
E1E0
E1E0
F3C0
FFC0
7F80
3F00
ENDCHAR
STARTCHAR 01AF
ENCODING 431
SWIDTH 630 0
DWIDTH 14 0
BBX 15 17 1 0
BITMAP
000E
F0FC
F0FC
F0F8
F0F8
F0F0
F0F0
F0F0
F0F0
F0F0
F0F0
F0F0
F0F0
FFE0
7FE0
3FC0
1F80
ENDCHAR
STARTCHAR 01B0
ENCODING 432
SWIDTH 540 0
DWIDTH 12 0
BBX 13 13 1 0
BITMAP
0038
0070
E1F0
E1E0
E1E0
E1C0
E1C0
E1C0
E1C0
F3C0
FF80
7F80
3F00
ENDCHAR
STARTCHAR 02C6
ENCODING 710
SWIDTH 495 0
DWIDTH 11 0
BBX 7 4 2 12
BITMAP
38
6C
6C
C6
ENDCHAR
STARTCHAR 02C7
ENCODING 711
SWIDTH 495 0
DWIDTH 11 0
BBX 6 4 3 12
BITMAP
8C
D8
78
70
ENDCHAR
STARTCHAR 02C9
ENCODING 713
SWIDTH 495 0
DWIDTH 11 0
BBX 7 2 2 13
BITMAP
FE
FE
ENDCHAR
STARTCHAR 02D8
ENCODING 728
SWIDTH 495 0
DWIDTH 11 0
BBX 7 3 2 13
BITMAP
C6
C6
7C
ENDCHAR
STARTCHAR 02D9
ENCODING 729
SWIDTH 495 0
DWIDTH 11 0
BBX 3 3 4 13
BITMAP
40
E0
E0
ENDCHAR
STARTCHAR 02DA
ENCODING 730
SWIDTH 495 0
DWIDTH 11 0
BBX 5 6 3 12
BITMAP
70
F8
88
88
F8
70
ENDCHAR
STARTCHAR 02DB
ENCODING 731
SWIDTH 495 0
DWIDTH 11 0
BBX 3 5 4 -5
BITMAP
40
C0
80
E0
E0
ENDCHAR
STARTCHAR 02DC
ENCODING 732
SWIDTH 495 0
DWIDTH 11 0
BBX 7 3 2 13
BITMAP
02
7E
DC
ENDCHAR
STARTCHAR 02DD
ENCODING 733
SWIDTH 495 0
DWIDTH 11 0
BBX 7 4 3 12
BITMAP
6E
6C
48
90
ENDCHAR
STARTCHAR 0394
ENCODING 916
SWIDTH 675 0
DWIDTH 15 0
BBX 16 16 0 0
BITMAP
03C0
07E0
07E0
07E0
0FF0
0FF0
1E70
1E78
1E78
3C3C
3C3C
3C3C
781E
7FFE
7FFE
FFFF
ENDCHAR
STARTCHAR 03A9
ENCODING 937
SWIDTH 765 0
DWIDTH 17 0
BBX 17 16 0 0
BITMAP
07F800
1FFC00
1FFE00
3E1F00
3C0F00
7C0F80
780F80
780780
780F00
3C0F00
3C0F00
1E1E00
0E3C00
FE3F80
FE3F80
FE3F80
ENDCHAR
STARTCHAR 03BC
ENCODING 956
SWIDTH 630 0
DWIDTH 14 0
BBX 14 17 0 -5
BITMAP
3C3C
3C38
3C78
3878
7878
7878
7878
7870
78F0
7FF0
FFF0
F7F0
F000
F000
F000
F000
E000
ENDCHAR
STARTCHAR 03C0
ENCODING 960
SWIDTH 720 0
DWIDTH 16 0
BBX 17 12 0 0
BITMAP
3FFF80
7FFF00
FFFF00
EF3C00
0F3C00
0E3C00
1E3C00
1E3C00
1E3800
1E7800
1E7800
1E7800
ENDCHAR
STARTCHAR 1EA0
ENCODING 7840
SWIDTH 585 0
DWIDTH 13 0
BBX 12 22 1 -6
BITMAP
0F00
3FC0
7FE0
7FE0
F9F0
F0F0
F0F0
F7F0
F7F0
F7F0
F0F0
F0F0
F0F0
F0F0
F0F0
F0F0
0000
0600
0F00
0F00
0F00
0600
ENDCHAR
STARTCHAR 1EA1
ENCODING 7841
SWIDTH 540 0
DWIDTH 12 0
BBX 11 17 1 -6
BITMAP
3F00
7F80
FFC0
F3C0
E1E0
E1E0
E1E0
F3E0
FFE0
7FE0
3FE0
0000
0400
1E00
1E00
1E00
0C00
ENDCHAR
STARTCHAR 1EA2
ENCODING 7842
SWIDTH 585 0
DWIDTH 13 0
BBX 12 21 1 0
BITMAP
0F00
0900
0300
0600
0600
0F00
3FC0
7FE0
7FE0
F9F0
F0F0
F0F0
F7F0
F7F0
F7F0
F0F0
F0F0
F0F0
F0F0
F0F0
F0F0
ENDCHAR
STARTCHAR 1EA3
ENCODING 7843
SWIDTH 540 0
DWIDTH 12 0
BBX 11 17 1 0
BITMAP
0E00
1A00
0300
0600
0400
0000
3F00
7F80
FFC0
F3C0
E1E0
E1E0
E1E0
F3E0
FFE0
7FE0
3FE0
ENDCHAR
STARTCHAR 1EA4
ENCODING 7844
SWIDTH 585 0
DWIDTH 13 0
BBX 12 25 1 0
BITMAP
0700
0600
0C00
1800
0000
0F00
0F00
1980
1080
0F00
3FC0
7FE0
7FE0
F9F0
F0F0
F0F0
F7F0
F7F0
F7F0
F0F0
F0F0
F0F0
F0F0
F0F0
F0F0
ENDCHAR
STARTCHAR 1EA5
ENCODING 7845
SWIDTH 540 0
DWIDTH 12 0
BBX 11 21 1 0
BITMAP
0E00
0C00
1C00
1800
0000
0E00
1E00
1300
3180
0000
3F00
7F80
FFC0
F3C0
E1E0
E1E0
E1E0
F3E0
FFE0
7FE0
3FE0
ENDCHAR
STARTCHAR 1EA6
ENCODING 7846
SWIDTH 585 0
DWIDTH 13 0
BBX 12 25 1 0
BITMAP
0E00
0600
0300
0100
0000
0F00
0F00
1980
1080
0F00
3FC0
7FE0
7FE0
F9F0
F0F0
F0F0
F7F0
F7F0
F7F0
F0F0
F0F0
F0F0
F0F0
F0F0
F0F0
ENDCHAR
STARTCHAR 1EA7
ENCODING 7847
SWIDTH 540 0
DWIDTH 12 0
BBX 11 21 1 0
BITMAP
1C00
0E00
0600
0300
0000
0E00
1E00
1300
3180
0000
3F00
7F80
FFC0
F3C0
E1E0
E1E0
E1E0
F3E0
FFE0
7FE0
3FE0
ENDCHAR
STARTCHAR 1EA8
ENCODING 7848
SWIDTH 585 0
DWIDTH 13 0
BBX 12 25 1 0
BITMAP
00C0
0160
0020
00E0
0080
0F00
0F00
1980
1080
0F00
3FC0
7FE0
7FE0
F9F0
F0F0
F0F0
F7F0
F7F0
F7F0
F0F0
F0F0
F0F0
F0F0
F0F0
F0F0
ENDCHAR
STARTCHAR 1EA9
ENCODING 7849
SWIDTH 540 0
DWIDTH 12 0
BBX 11 21 1 0
BITMAP
0180
03C0
0040
00C0
0080
0E00
1E00
1300
3180
0000
3F00
7F80
FFC0
F3C0
E1E0
E1E0
E1E0
F3E0
FFE0
7FE0
3FE0
ENDCHAR
STARTCHAR 1EAA
ENCODING 7850
SWIDTH 585 0
DWIDTH 13 0
BBX 12 24 1 0
BITMAP
0440
0F80
1900
0000
0F00
0F00
1980
1080
0F00
3FC0
7FE0
7FE0
F9F0
F0F0
F0F0
F7F0
F7F0
F7F0
F0F0
F0F0
F0F0
F0F0
F0F0
F0F0
ENDCHAR
STARTCHAR 1EAB
ENCODING 7851
SWIDTH 540 0
DWIDTH 12 0
BBX 11 20 1 0
BITMAP
0080
1F80
1300
0000
0E00
1E00
1300
3180
0000
3F00
7F80
FFC0
F3C0
E1E0
E1E0
E1E0
F3E0
FFE0
7FE0
3FE0
ENDCHAR
STARTCHAR 1EAC
ENCODING 7852
SWIDTH 585 0
DWIDTH 13 0
BBX 12 26 1 -6
BITMAP
0F00
0F00
1980
1080
0F00
3FC0
7FE0
7FE0
F9F0
F0F0
F0F0
F7F0
F7F0
F7F0
F0F0
F0F0
F0F0
F0F0
F0F0
F0F0
0000
0600
0F00
0F00
0F00
0600
ENDCHAR
STARTCHAR 1EAD
ENCODING 7853
SWIDTH 540 0
DWIDTH 12 0
BBX 11 22 1 -6
BITMAP
0E00
1E00
1300
3180
0000
3F00
7F80
FFC0
F3C0
E1E0
E1E0
E1E0
F3E0
FFE0
7FE0
3FE0
0000
0400
1E00
1E00
1E00
0C00
ENDCHAR
STARTCHAR 1EAE
ENCODING 7854
SWIDTH 585 0
DWIDTH 13 0
BBX 12 25 1 0
BITMAP
0380
0300
0600
0400
0000
1080
1980
0F00
0000
0F00
3FC0
7FE0
7FE0
F9F0
F0F0
F0F0
F7F0
F7F0
F7F0
F0F0
F0F0
F0F0
F0F0
F0F0
F0F0
ENDCHAR
STARTCHAR 1EAF
ENCODING 7855
SWIDTH 540 0
DWIDTH 12 0
BBX 11 21 1 0
BITMAP
0300
0600
0E00
0C00
0000
2180
3300
1F00
0000
0000
3F00
7F80
FFC0
F3C0
E1E0
E1E0
E1E0
F3E0
FFE0
7FE0
3FE0
ENDCHAR
STARTCHAR 1EB0
ENCODING 7856
SWIDTH 585 0
DWIDTH 13 0
BBX 12 25 1 0
BITMAP
1C00
0C00
0600
0200
0000
1080
1980
0F00
0000
0F00
3FC0
7FE0
7FE0
F9F0
F0F0
F0F0
F7F0
F7F0
F7F0
F0F0
F0F0
F0F0
F0F0
F0F0
F0F0
ENDCHAR
STARTCHAR 1EB1
ENCODING 7857
SWIDTH 540 0
DWIDTH 12 0
BBX 11 21 1 0
BITMAP
3800
1800
0C00
0600
0000
2180
3300
1F00
0000
0000
3F00
7F80
FFC0
F3C0
E1E0
E1E0
E1E0
F3E0
FFE0
7FE0
3FE0
ENDCHAR
STARTCHAR 1EB2
ENCODING 7858
SWIDTH 585 0
DWIDTH 13 0
BBX 12 25 1 0
BITMAP
0600
0F00
0100
0700
0400
1080
1980
0F00
0000
0F00
3FC0
7FE0
7FE0
F9F0
F0F0
F0F0
F7F0
F7F0
F7F0
F0F0
F0F0
F0F0
F0F0
F0F0
F0F0
ENDCHAR
STARTCHAR 1EB3
ENCODING 7859
SWIDTH 540 0
DWIDTH 12 0
BBX 11 21 1 0
BITMAP
0C00
1E00
0300
0600
0400
2180
3300
1F00
0000
0000
3F00
7F80
FFC0
F3C0
E1E0
E1E0
E1E0
F3E0
FFE0
7FE0
3FE0
ENDCHAR
STARTCHAR 1EB4
ENCODING 7860
SWIDTH 585 0
DWIDTH 13 0
BBX 12 24 1 0
BITMAP
0C80
1F80
1100
0000
1080
1980
0F00
0000
0F00
3FC0
7FE0
7FE0
F9F0
F0F0
F0F0
F7F0
F7F0
F7F0
F0F0
F0F0
F0F0
F0F0
F0F0
F0F0
ENDCHAR
STARTCHAR 1EB5
ENCODING 7861
SWIDTH 540 0
DWIDTH 12 0
BBX 11 20 1 0
BITMAP
0080
1F00
2700
0000
2180
3300
1F00
0000
0000
3F00
7F80
FFC0
F3C0
E1E0
E1E0
E1E0
F3E0
FFE0
7FE0
3FE0
ENDCHAR
STARTCHAR 1EB6
ENCODING 7862
SWIDTH 585 0
DWIDTH 13 0
BBX 12 26 1 -6
BITMAP
1080
1980
0F00
0000
0F00
3FC0
7FE0
7FE0
F9F0
F0F0
F0F0
F7F0
F7F0
F7F0
F0F0
F0F0
F0F0
F0F0
F0F0
F0F0
0000
0600
0F00
0F00
0F00
0600
ENDCHAR
STARTCHAR 1EB7
ENCODING 7863
SWIDTH 540 0
DWIDTH 12 0
BBX 11 22 1 -6
BITMAP
2180
3300
1F00
0000
0000
3F00
7F80
FFC0
F3C0
E1E0
E1E0
E1E0
F3E0
FFE0
7FE0
3FE0
0000
0400
1E00
1E00
1E00
0C00
ENDCHAR
STARTCHAR 1EB8
ENCODING 7864
SWIDTH 495 0
DWIDTH 11 0
BBX 10 22 1 -6
BITMAP
00C0
0FC0
3FC0
7FC0
7C00
F000
FFC0
FFC0
FFC0
FFC0
F000
F800
7FC0
3FC0
1FC0
07C0
0000
0200
0F00
0F80
0F00
0700
ENDCHAR
STARTCHAR 1EB9
ENCODING 7865
SWIDTH 540 0
DWIDTH 12 0
BBX 11 17 1 -6
BITMAP
3F00
7F80
FFC0
E3C0
EF00
EE00
E4C0
F1E0
FFC0
7F80
3F00
0000
0400
1E00
1E00
1E00
0C00
ENDCHAR
STARTCHAR 1EBA
ENCODING 7866
SWIDTH 495 0
DWIDTH 11 0
BBX 10 21 1 0
BITMAP
0380
06C0
00C0
0180
0100
00C0
0FC0
3FC0
7FC0
7C00
F000
FFC0
FFC0
FFC0
FFC0
F000
F800
7FC0
3FC0
1FC0
07C0
ENDCHAR
STARTCHAR 1EBB
ENCODING 7867
SWIDTH 540 0
DWIDTH 12 0
BBX 11 17 1 0
BITMAP
0E00
1A00
0300
0600
0400
0000
3F00
7F80
FFC0
E3C0
EF00
EE00
E4C0
F1E0
FFC0
7F80
3F00
ENDCHAR
STARTCHAR 1EBC
ENCODING 7868
SWIDTH 495 0
DWIDTH 11 0
BBX 10 20 1 0
BITMAP
0FC0
1F80
0000
0000
00C0
0FC0
3FC0
7FC0
7C00
F000
FFC0
FFC0
FFC0
FFC0
F000
F800
7FC0
3FC0
1FC0
07C0
ENDCHAR
STARTCHAR 1EBD
ENCODING 7869
SWIDTH 540 0
DWIDTH 12 0
BBX 11 16 1 0
BITMAP
0100
3F00
2E00
0000
0000
3F00
7F80
FFC0
E3C0
EF00
EE00
E4C0
F1E0
FFC0
7F80
3F00
ENDCHAR
STARTCHAR 1EBE
ENCODING 7870
SWIDTH 495 0
DWIDTH 11 0
BBX 10 25 1 0
BITMAP
0700
0600
0C00
0C00
0000
0F00
0D80
1980
10C0
00C0
0FC0
3FC0
7FC0
7C00
F000
FFC0
FFC0
FFC0
FFC0
F000
F800
7FC0
3FC0
1FC0
07C0
ENDCHAR
STARTCHAR 1EBF
ENCODING 7871
SWIDTH 540 0
DWIDTH 12 0
BBX 11 21 1 0
BITMAP
0E00
0C00
1800
1800
0000
1E00
1E00
3300
2100
0000
3F00
7F80
FFC0
E3C0
EF00
EE00
E4C0
F1E0
FFC0
7F80
3F00
ENDCHAR
STARTCHAR 1EC0
ENCODING 7872
SWIDTH 495 0
DWIDTH 11 0
BBX 10 25 1 0
BITMAP
0E00
0700
0300
0180
0000
0F00
0D80
1980
10C0
00C0
0FC0
3FC0
7FC0
7C00
F000
FFC0
FFC0
FFC0
FFC0
F000
F800
7FC0
3FC0
1FC0
07C0
ENDCHAR
STARTCHAR 1EC1
ENCODING 7873
SWIDTH 540 0
DWIDTH 12 0
BBX 11 21 1 0
BITMAP
1C00
0C00
0600
0300
0000
1E00
1E00
3300
2100
0000
3F00
7F80
FFC0
E3C0
EF00
EE00
E4C0
F1E0
FFC0
7F80
3F00
ENDCHAR
STARTCHAR 1EC2
ENCODING 7874
SWIDTH 495 0
DWIDTH 11 0
BBX 11 25 1 0
BITMAP
00E0
01A0
0020
0060
0040
0F00
0D80
1980
10C0
00C0
0FC0
3FC0
7FC0
7C00
F000
FFC0
FFC0
FFC0
FFC0
F000
F800
7FC0
3FC0
1FC0
07C0
ENDCHAR
STARTCHAR 1EC3
ENCODING 7875
SWIDTH 540 0
DWIDTH 12 0
BBX 11 21 1 0
BITMAP
0180
03C0
0040
01C0
0180
1E00
1E00
3300
2100
0000
3F00
7F80
FFC0
E3C0
EF00
EE00
E4C0
F1E0
FFC0
7F80
3F00
ENDCHAR
STARTCHAR 1EC4
ENCODING 7876
SWIDTH 495 0
DWIDTH 11 0
BBX 10 24 1 0
BITMAP
0640
0FC0
0800
0000
0F00
0D80
1980
10C0
00C0
0FC0
3FC0
7FC0
7C00
F000
FFC0
FFC0
FFC0
FFC0
F000
F800
7FC0
3FC0
1FC0
07C0
ENDCHAR
STARTCHAR 1EC5
ENCODING 7877
SWIDTH 540 0
DWIDTH 12 0
BBX 11 20 1 0
BITMAP
0080
1F80
3300
0000
1E00
1E00
3300
2100
0000
3F00
7F80
FFC0
E3C0
EF00
EE00
E4C0
F1E0
FFC0
7F80
3F00
ENDCHAR
STARTCHAR 1EC6
ENCODING 7878
SWIDTH 495 0
DWIDTH 11 0
BBX 10 26 1 -6
BITMAP
0F00
0D80
1980
10C0
00C0
0FC0
3FC0
7FC0
7C00
F000
FFC0
FFC0
FFC0
FFC0
F000
F800
7FC0
3FC0
1FC0
07C0
0000
0200
0F00
0F80
0F00
0700
ENDCHAR
STARTCHAR 1EC7
ENCODING 7879
SWIDTH 540 0
DWIDTH 12 0
BBX 11 22 1 -6
BITMAP
1E00
1E00
3300
2100
0000
3F00
7F80
FFC0
E3C0
EF00
EE00
E4C0
F1E0
FFC0
7F80
3F00
0000
0400
1E00
1E00
1E00
0C00
ENDCHAR
STARTCHAR 1EC8
ENCODING 7880
SWIDTH 270 0
DWIDTH 6 0
BBX 4 21 1 0
BITMAP
F0
90
10
20
20
F0
F0
F0
F0
F0
F0
F0
F0
F0
F0
F0
F0
F0
F0
F0
F0
ENDCHAR
STARTCHAR 1EC9
ENCODING 7881
SWIDTH 225 0
DWIDTH 5 0
BBX 4 17 1 0
BITMAP
E0
90
10
70
40
00
F0
F0
F0
F0
F0
F0
F0
F0
F0
F0
F0
ENDCHAR
STARTCHAR 1ECA
ENCODING 7882
SWIDTH 270 0
DWIDTH 6 0
BBX 4 22 1 -6
BITMAP
F0
F0
F0
F0
F0
F0
F0
F0
F0
F0
F0
F0
F0
F0
F0
F0
00
20
F0
F0
F0
60
ENDCHAR
STARTCHAR 1ECB
ENCODING 7883
SWIDTH 225 0
DWIDTH 5 0
BBX 4 22 1 -6
BITMAP
E0
F0
F0
E0
00
F0
F0
F0
F0
F0
F0
F0
F0
F0
F0
F0
00
40
F0
F0
F0
60
ENDCHAR
STARTCHAR 1ECC
ENCODING 7884
SWIDTH 765 0
DWIDTH 17 0
BBX 16 22 1 -6
BITMAP
07C0
1FF0
3FF8
7FFC
7C3E
F81E
F01E
F00F
F00F
F01E
F01E
F83E
7FFC
3FFC
1FF8
0FE0
0000
0100
03C0
07C0
03C0
0380
ENDCHAR
STARTCHAR 1ECD
ENCODING 7885
SWIDTH 540 0
DWIDTH 12 0
BBX 11 17 1 -6
BITMAP
3F00
7F80
FFC0
F3C0
E1E0
E1E0
E1E0
F3C0
FFC0
7F80
3F00
0000
0400
1E00
1E00
1E00
0C00
ENDCHAR
STARTCHAR 1ECE
ENCODING 7886
SWIDTH 765 0
DWIDTH 17 0
BBX 16 21 1 0
BITMAP
0380
02C0
00C0
0180
0100
07C0
1FF0
3FF8
7FFC
7C3E
F81E
F01E
F00F
F00F
F01E
F01E
F83E
7FFC
3FFC
1FF8
0FE0
ENDCHAR
STARTCHAR 1ECF
ENCODING 7887
SWIDTH 540 0
DWIDTH 12 0
BBX 11 17 1 0
BITMAP
0E00
1A00
0300
0600
0400
0000
3F00
7F80
FFC0
F3C0
E1E0
E1E0
E1E0
F3C0
FFC0
7F80
3F00
ENDCHAR
STARTCHAR 1ED0
ENCODING 7888
SWIDTH 765 0
DWIDTH 17 0
BBX 16 25 1 0
BITMAP
0180
0380
0300
0600
0000
0380
06C0
0640
0C60
07C0
1FF0
3FF8
7FFC
7C3E
F81E
F01E
F00F
F00F
F01E
F01E
F83E
7FFC
3FFC
1FF8
0FE0
ENDCHAR
STARTCHAR 1ED1
ENCODING 7889
SWIDTH 540 0
DWIDTH 12 0
BBX 11 21 1 0
BITMAP
0E00
0C00
1800
1800
0000
1E00
1E00
3300
2100
0000
3F00
7F80
FFC0
F3C0
E1E0
E1E0
E1E0
F3C0
FFC0
7F80
3F00
ENDCHAR
STARTCHAR 1ED2
ENCODING 7890
SWIDTH 765 0
DWIDTH 17 0
BBX 16 25 1 0
BITMAP
0300
0180
01C0
00C0
0000
0380
06C0
0640
0C60
07C0
1FF0
3FF8
7FFC
7C3E
F81E
F01E
F00F
F00F
F01E
F01E
F83E
7FFC
3FFC
1FF8
0FE0
ENDCHAR
STARTCHAR 1ED3
ENCODING 7891
SWIDTH 540 0
DWIDTH 12 0
BBX 11 21 1 0
BITMAP
1C00
0C00
0600
0300
0000
1E00
1E00
3300
2100
0000
3F00
7F80
FFC0
F3C0
E1E0
E1E0
E1E0
F3C0
FFC0
7F80
3F00
ENDCHAR
STARTCHAR 1ED4
ENCODING 7892
SWIDTH 765 0
DWIDTH 17 0
BBX 16 25 1 0
BITMAP
0070
00D8
0018
0030
0020
0380
06C0
0640
0C60
07C0
1FF0
3FF8
7FFC
7C3E
F81E
F01E
F00F
F00F
F01E
F01E
F83E
7FFC
3FFC
1FF8
0FE0
ENDCHAR
STARTCHAR 1ED5
ENCODING 7893
SWIDTH 540 0
DWIDTH 12 0
BBX 11 21 1 0
BITMAP
0180
03C0
0040
01C0
0180
1E00
1E00
3300
2100
0000
3F00
7F80
FFC0
F3C0
E1E0
E1E0
E1E0
F3C0
FFC0
7F80
3F00
ENDCHAR
STARTCHAR 1ED6
ENCODING 7894
SWIDTH 765 0
DWIDTH 17 0
BBX 16 24 1 0
BITMAP
0330
07E0
0440
0000
0380
06C0
0640
0C60
07C0
1FF0
3FF8
7FFC
7C3E
F81E
F01E
F00F
F00F
F01E
F01E
F83E
7FFC
3FFC
1FF8
0FE0
ENDCHAR
STARTCHAR 1ED7
ENCODING 7895
SWIDTH 540 0
DWIDTH 12 0
BBX 11 20 1 0
BITMAP
0080
1F80
3300
0000
1E00
1E00
3300
2100
0000
3F00
7F80
FFC0
F3C0
E1E0
E1E0
E1E0
F3C0
FFC0
7F80
3F00
ENDCHAR
STARTCHAR 1ED8
ENCODING 7896
SWIDTH 765 0
DWIDTH 17 0
BBX 16 26 1 -6
BITMAP
0380
06C0
0640
0C60
07C0
1FF0
3FF8
7FFC
7C3E
F81E
F01E
F00F
F00F
F01E
F01E
F83E
7FFC
3FFC
1FF8
0FE0
0000
0100
03C0
07C0
03C0
0380
ENDCHAR
STARTCHAR 1ED9
ENCODING 7897
SWIDTH 540 0
DWIDTH 12 0
BBX 11 22 1 -6
BITMAP
1E00
1E00
3300
2100
0000
3F00
7F80
FFC0
F3C0
E1E0
E1E0
E1E0
F3C0
FFC0
7F80
3F00
0000
0400
1E00
1E00
1E00
0C00
ENDCHAR
STARTCHAR 1EDA
ENCODING 7898
SWIDTH 765 0
DWIDTH 17 0
BBX 16 21 1 0
BITMAP
00C0
01C0
0180
0300
0007
07C6
1FFE
3FFC
7FFC
7C3E
F81E
F01E
F00F
F00F
F01E
F01E
F83E
7FFC
3FFC
1FF8
0FE0
ENDCHAR
STARTCHAR 1EDB
ENCODING 7899
SWIDTH 540 0
DWIDTH 12 0
BBX 12 16 1 0
BITMAP
0700
0600
0C00
0870
0060
3FE0
7FC0
FFC0
F3C0
E1E0
E1E0
E1E0
F3C0
FFC0
7F80
3F00
ENDCHAR
STARTCHAR 1EDC
ENCODING 7900
SWIDTH 765 0
DWIDTH 17 0
BBX 16 21 1 0
BITMAP
0600
0300
0180
0180
0007
07C6
1FFE
3FFC
7FFC
7C3E
F81E
F01E
F00F
F00F
F01E
F01E
F83E
7FFC
3FFC
1FF8
0FE0
ENDCHAR
STARTCHAR 1EDD
ENCODING 7901
SWIDTH 540 0
DWIDTH 12 0
BBX 12 16 1 0
BITMAP
3800
1C00
0C00
0670
0060
3FE0
7FC0
FFC0
F3C0
E1E0
E1E0
E1E0
F3C0
FFC0
7F80
3F00
ENDCHAR
STARTCHAR 1EDE
ENCODING 7902
SWIDTH 765 0
DWIDTH 17 0
BBX 16 21 1 0
BITMAP
0380
02C0
00C0
0180
0107
07C6
1FFE
3FFC
7FFC
7C3E
F81E
F01E
F00F
F00F
F01E
F01E
F83E
7FFC
3FFC
1FF8
0FE0
ENDCHAR
STARTCHAR 1EDF
ENCODING 7903
SWIDTH 540 0
DWIDTH 12 0
BBX 12 17 1 0
BITMAP
0E00
1A00
0300
0600
0470
0060
3FE0
7FC0
FFC0
F3C0
E1E0
E1E0
E1E0
F3C0
FFC0
7F80
3F00
ENDCHAR
STARTCHAR 1EE0
ENCODING 7904
SWIDTH 765 0
DWIDTH 17 0
BBX 16 20 1 0
BITMAP
07E0
0FC0
0000
0007
07C6
1FFE
3FFC
7FFC
7C3E
F81E
F01E
F00F
F00F
F01E
F01E
F83E
7FFC
3FFC
1FF8
0FE0
ENDCHAR
STARTCHAR 1EE1
ENCODING 7905
SWIDTH 540 0
DWIDTH 12 0
BBX 12 16 1 0
BITMAP
0180
3F00
2E00
0070
0060
3FE0
7FC0
FFC0
F3C0
E1E0
E1E0
E1E0
F3C0
FFC0
7F80
3F00
ENDCHAR
STARTCHAR 1EE2
ENCODING 7906
SWIDTH 765 0
DWIDTH 17 0
BBX 16 23 1 -6
BITMAP
0007
07C6
1FFE
3FFC
7FFC
7C3E
F81E
F01E
F00F
F00F
F01E
F01E
F83E
7FFC
3FFC
1FF8
0FE0
0000
0100
03C0
07C0
03C0
0380
ENDCHAR
STARTCHAR 1EE3
ENCODING 7907
SWIDTH 540 0
DWIDTH 12 0
BBX 12 19 1 -6
BITMAP
0070
0060
3FE0
7FC0
FFC0
F3C0
E1E0
E1E0
E1E0
F3C0
FFC0
7F80
3F00
0000
0400
1E00
1E00
1E00
0C00
ENDCHAR
STARTCHAR 1EE4
ENCODING 7908
SWIDTH 585 0
DWIDTH 13 0
BBX 12 22 1 -6
BITMAP
F0F0
F0F0
F0F0
F0F0
F0F0
F0F0
F0F0
F0F0
F0F0
F0F0
F0F0
F0F0
FFE0
7FE0
3FC0
1F80
0000
0600
0F00
0F00
0F00
0600
ENDCHAR
STARTCHAR 1EE5
ENCODING 7909
SWIDTH 495 0
DWIDTH 11 0
BBX 10 17 1 -6
BITMAP
E1C0
E1C0
E1C0
E1C0
E1C0
E1C0
E1C0
F3C0
FF80
7F80
3F00
0000
0C00
1E00
1E00
1E00
0C00
ENDCHAR
STARTCHAR 1EE6
ENCODING 7910
SWIDTH 585 0
DWIDTH 13 0
BBX 12 21 1 0
BITMAP
0F00
0900
0300
0600
0400
F0F0
F0F0
F0F0
F0F0
F0F0
F0F0
F0F0
F0F0
F0F0
F0F0
F0F0
F0F0
FFE0
7FE0
3FC0
1F80
ENDCHAR
STARTCHAR 1EE7
ENCODING 7911
SWIDTH 495 0
DWIDTH 11 0
BBX 10 17 1 0
BITMAP
0C00
1200
0200
0E00
0800
0000
E1C0
E1C0
E1C0
E1C0
E1C0
E1C0
E1C0
F3C0
FF80
7F80
3F00
ENDCHAR
STARTCHAR 1EE8
ENCODING 7912
SWIDTH 630 0
DWIDTH 14 0
BBX 15 21 1 0
BITMAP
0380
0300
0600
0C00
000E
F0FC
F0FC
F0F8
F0F8
F0F0
F0F0
F0F0
F0F0
F0F0
F0F0
F0F0
F0F0
FFE0
7FE0
3FC0
1F80
ENDCHAR
STARTCHAR 1EE9
ENCODING 7913
SWIDTH 540 0
DWIDTH 12 0
BBX 13 16 1 0
BITMAP
0700
0E00
0C00
1838
0070
E1F0
E1E0
E1E0
E1C0
E1C0
E1C0
E1C0
F3C0
FF80
7F80
3F00
ENDCHAR
STARTCHAR 1EEA
ENCODING 7914
SWIDTH 630 0
DWIDTH 14 0
BBX 15 21 1 0
BITMAP
1C00
0C00
0600
0200
000E
F0FC
F0FC
F0F8
F0F8
F0F0
F0F0
F0F0
F0F0
F0F0
F0F0
F0F0
F0F0
FFE0
7FE0
3FC0
1F80
ENDCHAR
STARTCHAR 1EEB
ENCODING 7915
SWIDTH 540 0
DWIDTH 12 0
BBX 13 16 1 0
BITMAP
3800
1C00
0C00
0638
0070
E1F0
E1E0
E1E0
E1C0
E1C0
E1C0
E1C0
F3C0
FF80
7F80
3F00
ENDCHAR
STARTCHAR 1EEC
ENCODING 7916
SWIDTH 630 0
DWIDTH 14 0
BBX 15 21 1 0
BITMAP
0F00
0900
0300
0600
040E
F0FC
F0FC
F0F8
F0F8
F0F0
F0F0
F0F0
F0F0
F0F0
F0F0
F0F0
F0F0
FFE0
7FE0
3FC0
1F80
ENDCHAR
STARTCHAR 1EED
ENCODING 7917
SWIDTH 540 0
DWIDTH 12 0
BBX 13 17 1 0
BITMAP
0C00
1200
0200
0E00
0838
0070
E1F0
E1E0
E1E0
E1C0
E1C0
E1C0
E1C0
F3C0
FF80
7F80
3F00
ENDCHAR
STARTCHAR 1EEE
ENCODING 7918
SWIDTH 630 0
DWIDTH 14 0
BBX 15 20 1 0
BITMAP
1F80
1F00
0000
000E
F0FC
F0FC
F0F8
F0F8
F0F0
F0F0
F0F0
F0F0
F0F0
F0F0
F0F0
F0F0
FFE0
7FE0
3FC0
1F80
ENDCHAR
STARTCHAR 1EEF
ENCODING 7919
SWIDTH 540 0
DWIDTH 12 0
BBX 13 16 1 0
BITMAP
0100
3F00
2E00
0038
0070
E1F0
E1E0
E1E0
E1C0
E1C0
E1C0
E1C0
F3C0
FF80
7F80
3F00
ENDCHAR
STARTCHAR 1EF0
ENCODING 7920
SWIDTH 630 0
DWIDTH 14 0
BBX 15 23 1 -6
BITMAP
000E
F0FC
F0FC
F0F8
F0F8
F0F0
F0F0
F0F0
F0F0
F0F0
F0F0
F0F0
F0F0
FFE0
7FE0
3FC0
1F80
0000
0600
0F00
0F00
0F00
0600
ENDCHAR
STARTCHAR 1EF1
ENCODING 7921
SWIDTH 540 0
DWIDTH 12 0
BBX 13 19 1 -6
BITMAP
0038
0070
E1F0
E1E0
E1E0
E1C0
E1C0
E1C0
E1C0
F3C0
FF80
7F80
3F00
0000
0C00
1E00
1E00
1E00
0C00
ENDCHAR
STARTCHAR 1EF2
ENCODING 7922
SWIDTH 540 0
DWIDTH 12 0
BBX 11 21 1 0
BITMAP
3800
1C00
0C00
0600
0000
F1E0
F1E0
F1E0
F1E0
F1E0
F1E0
F1E0
FFC0
7FC0
3F80
1F00
1E00
1E00
1E00
1E00
1E00
ENDCHAR
STARTCHAR 1EF3
ENCODING 7923
SWIDTH 495 0
DWIDTH 11 0
BBX 10 21 1 -5
BITMAP
3800
1C00
0C00
0600
0000
E1C0
E1C0
E1C0
E1C0
E1C0
E1C0
E1C0
F3C0
FF80
7F80
3F00
1E00
1E00
1E00
1E00
1E00
ENDCHAR
STARTCHAR 1EF4
ENCODING 7924
SWIDTH 540 0
DWIDTH 12 0
BBX 11 22 1 -6
BITMAP
F1E0
F1E0
F1E0
F1E0
F1E0
F1E0
F1E0
FFC0
7FC0
3F80
1F00
1E00
1E00
1E00
1E00
1E00
0000
0400
1E00
1F00
1E00
0E00
ENDCHAR
STARTCHAR 1EF5
ENCODING 7925
SWIDTH 495 0
DWIDTH 11 0
BBX 11 17 1 -6
BITMAP
E1C0
E1C0
E1C0
E1C0
E1C0
E1C0
E1C0
F3C0
FF80
7F80
3F00
1E00
1E80
1FC0
1FE0
1FC0
01C0
ENDCHAR
STARTCHAR 1EF6
ENCODING 7926
SWIDTH 540 0
DWIDTH 12 0
BBX 11 21 1 0
BITMAP
0E00
1B00
0200
0600
0400
F1E0
F1E0
F1E0
F1E0
F1E0
F1E0
F1E0
FFC0
7FC0
3F80
1F00
1E00
1E00
1E00
1E00
1E00
ENDCHAR
STARTCHAR 1EF7
ENCODING 7927
SWIDTH 495 0
DWIDTH 11 0
BBX 10 22 1 -5
BITMAP
0C00
1200
0200
0E00
0800
0000
E1C0
E1C0
E1C0
E1C0
E1C0
E1C0
E1C0
F3C0
FF80
7F80
3F00
1E00
1E00
1E00
1E00
1E00
ENDCHAR
STARTCHAR 1EF8
ENCODING 7928
SWIDTH 540 0
DWIDTH 12 0
BBX 11 20 1 0
BITMAP
1F00
3F00
0000
0000
F1E0
F1E0
F1E0
F1E0
F1E0
F1E0
F1E0
FFC0
7FC0
3F80
1F00
1E00
1E00
1E00
1E00
1E00
ENDCHAR
STARTCHAR 1EF9
ENCODING 7929
SWIDTH 495 0
DWIDTH 11 0
BBX 10 21 1 -5
BITMAP
0100
3F00
2E00
0000
0000
E1C0
E1C0
E1C0
E1C0
E1C0
E1C0
E1C0
F3C0
FF80
7F80
3F00
1E00
1E00
1E00
1E00
1E00
ENDCHAR
STARTCHAR 2010
ENCODING 8208
SWIDTH 315 0
DWIDTH 7 0
BBX 6 3 1 4
BITMAP
FC
FC
FC
ENDCHAR
STARTCHAR 2013
ENCODING 8211
SWIDTH 495 0
DWIDTH 11 0
BBX 11 3 0 4
BITMAP
FFE0
FFE0
FFE0
ENDCHAR
STARTCHAR 2014
ENCODING 8212
SWIDTH 990 0
DWIDTH 22 0
BBX 22 3 0 4
BITMAP
FFFFFC
FFFFFC
FFFFFC
ENDCHAR
STARTCHAR 2018
ENCODING 8216
SWIDTH 270 0
DWIDTH 6 0
BBX 4 6 1 10
BITMAP
30
70
70
70
60
E0
ENDCHAR
STARTCHAR 2019
ENCODING 8217
SWIDTH 270 0
DWIDTH 6 0
BBX 3 6 2 10
BITMAP
E0
E0
E0
C0
C0
C0
ENDCHAR
STARTCHAR 201A
ENCODING 8218
SWIDTH 270 0
DWIDTH 6 0
BBX 4 6 1 -3
BITMAP
70
70
60
60
E0
E0
ENDCHAR
STARTCHAR 201C
ENCODING 8220
SWIDTH 450 0
DWIDTH 10 0
BBX 9 6 1 10
BITMAP
3380
7300
7300
7700
6700
E700
ENDCHAR
STARTCHAR 201D
ENCODING 8221
SWIDTH 450 0
DWIDTH 10 0
BBX 8 6 2 10
BITMAP
E7
E6
EE
CE
CE
CC
ENDCHAR
STARTCHAR 201E
ENCODING 8222
SWIDTH 450 0
DWIDTH 10 0
BBX 8 6 1 -3
BITMAP
73
77
67
67
E6
E6
ENDCHAR
STARTCHAR 2020
ENCODING 8224
SWIDTH 495 0
DWIDTH 11 0
BBX 9 17 1 -1
BITMAP
1C00
1C00
1C00
1C00
FF80
FF80
FF80
1C00
1C00
1C00
1C00
1C00
1C00
1C00
1C00
1C00
1C00
ENDCHAR
STARTCHAR 2021
ENCODING 8225
SWIDTH 495 0
DWIDTH 11 0
BBX 9 17 1 -1
BITMAP
1C00
1C00
1C00
1C00
FF80
FF80
FF80
1C00
1C00
1C00
FF80
FF80
FF80
1C00
1C00
1C00
1C00
ENDCHAR
STARTCHAR 2022
ENCODING 8226
SWIDTH 585 0
DWIDTH 13 0
BBX 7 6 3 5
BITMAP
7C
7E
FE
FE
7C
38
ENDCHAR
STARTCHAR 2026
ENCODING 8230
SWIDTH 990 0
DWIDTH 22 0
BBX 19 4 2 0
BITMAP
E0E1C0
F1E3E0
F1E3E0
E1E1C0
ENDCHAR
STARTCHAR 2030
ENCODING 8240
SWIDTH 1260 0
DWIDTH 28 0
BBX 26 16 1 0
BITMAP
100E0000
7C0C0000
FE180000
E7380000
C7300000
E7700000
FE600000
7CC00000
01CF0F00
019F9FC0
033B9DC0
0731F8C0
0631F8C0
0E3B9DC0
0C1F9FC0
180F0F00
ENDCHAR
STARTCHAR 2039
ENCODING 8249
SWIDTH 315 0
DWIDTH 7 0
BBX 5 7 1 2
BITMAP
18
30
70
E0
70
30
18
ENDCHAR
STARTCHAR 203A
ENCODING 8250
SWIDTH 315 0
DWIDTH 7 0
BBX 5 7 1 2
BITMAP
E0
70
38
18
38
70
E0
ENDCHAR
STARTCHAR 2044
ENCODING 8260
SWIDTH 135 0
DWIDTH 3 0
BBX 10 16 -3 0
BITMAP
00C0
00C0
0180
0380
0300
0700
0600
0C00
0C00
1800
3800
3000
6000
6000
C000
C000
ENDCHAR
STARTCHAR 20A3
ENCODING 8355
SWIDTH 810 0
DWIDTH 18 0
BBX 17 16 1 0
BITMAP
070000
3F0000
7F0000
FF0000
F00000
F03980
F03F80
FF3F80
FF3F00
FF3C00
F03C00
F03C00
F03C00
F03C00
F03C00
F03C00
ENDCHAR
STARTCHAR 20AB
ENCODING 8363
SWIDTH 405 0
DWIDTH 9 0
BBX 9 15 0 1
BITMAP
0380
0F80
0F80
0B80
3F80
7F80
6380
E380
E300
7F00
7F00
1C00
0000
3F00
3F00
ENDCHAR
STARTCHAR 2122
ENCODING 8482
SWIDTH 810 0
DWIDTH 18 0
BBX 14 6 2 10
BITMAP
F99C
F9DC
315C
317C
316C
312C
ENDCHAR
STARTCHAR 2126
ENCODING 8486
SWIDTH 765 0
DWIDTH 17 0
BBX 17 16 0 0
BITMAP
07F800
1FFC00
1FFE00
3E1F00
3C0F00
7C0F80
780F80
780780
780F00
3C0F00
3C0F00
1E1E00
0E3C00
FE3F80
FE3F80
FE3F80
ENDCHAR
STARTCHAR 2202
ENCODING 8706
SWIDTH 540 0
DWIDTH 12 0
BBX 10 15 1 0
BITMAP
0E00
3F80
3880
00C0
00C0
00C0
3CC0
73C0
E1C0
E1C0
E1C0
E3C0
E380
E300
7E00
ENDCHAR
STARTCHAR 2206
ENCODING 8710
SWIDTH 675 0
DWIDTH 15 0
BBX 16 16 0 0
BITMAP
03C0
07E0
07E0
07E0
0FF0
0FF0
1E70
1E78
1E78
3C3C
3C3C
3C3C
781E
7FFE
7FFE
FFFF
ENDCHAR
STARTCHAR 220F
ENCODING 8719
SWIDTH 765 0
DWIDTH 17 0
BBX 14 20 2 -4
BITMAP
FFFC
FFFC
FFFC
FFFC
F03C
F03C
F03C
F03C
F03C
F03C
F03C
F03C
F03C
F03C
F03C
F03C
F03C
F03C
F03C
F03C
ENDCHAR
STARTCHAR 2211
ENCODING 8721
SWIDTH 720 0
DWIDTH 16 0
BBX 15 20 1 -4
BITMAP
FFFC
FFFC
FFFC
F800
7C00
3E00
1F00
0F80
07C0
03E0
01E0
03C0
0780
0F00
1E00
3E00
7C00
FFFE
FFFE
FFFE
ENDCHAR
STARTCHAR 2212
ENCODING 8722
SWIDTH 810 0
DWIDTH 18 0
BBX 13 3 3 5
BITMAP
FFF8
FFF8
FFF8
ENDCHAR
STARTCHAR 2219
ENCODING 8729
SWIDTH 270 0
DWIDTH 6 0
BBX 4 4 1 6
BITMAP
70
F0
F0
F0
ENDCHAR
STARTCHAR 221A
ENCODING 8730
SWIDTH 630 0
DWIDTH 14 0
BBX 14 19 1 0
BITMAP
001C
001C
0018
0030
0030
0030
0060
0060
1040
F0C0
B8C0
3980
1980
1D80
1F00
0F00
0F00
0E00
0600
ENDCHAR
STARTCHAR 221E
ENCODING 8734
SWIDTH 810 0
DWIDTH 18 0
BBX 14 9 2 2
BITMAP
3878
7CFC
EFFC
C384
8384
C784
7FFC
7CFC
3878
ENDCHAR
STARTCHAR 222B
ENCODING 8747
SWIDTH 585 0
DWIDTH 13 0
BBX 12 21 1 -4
BITMAP
00E0
0370
0370
0720
0700
0700
0600
0E00
0E00
0E00
0E00
0E00
0E00
0E00
0E00
0E00
0E00
4C00
EC00
F800
F000
ENDCHAR
STARTCHAR 2248
ENCODING 8776
SWIDTH 810 0
DWIDTH 18 0
BBX 15 9 2 2
BITMAP
3E06
FFFE
FFFE
80F8
0000
7F06
FFFE
E3FC
8070
ENDCHAR
STARTCHAR 2260
ENCODING 8800
SWIDTH 810 0
DWIDTH 18 0
BBX 13 13 3 1
BITMAP
0060
00E0
01E0
FFF8
FFF8
0700
0700
0E00
FFF8
FFF8
3800
7000
6000
ENDCHAR
STARTCHAR 2264
ENCODING 8804
SWIDTH 810 0
DWIDTH 18 0
BBX 13 14 3 0
BITMAP
0008
0078
03F8
1FE0
FF00
F800
FE00
3FE0
03F8
0078
0008
0000
FFF8
FFF8
ENDCHAR
STARTCHAR 2265
ENCODING 8805
SWIDTH 810 0
DWIDTH 18 0
BBX 13 13 3 1
BITMAP
E000
FE00
3FC0
07F8
00F8
07F8
3FC0
FE00
F000
8000
0000
FFF8
FFF8
ENDCHAR
STARTCHAR 22F2
ENCODING 8946
SWIDTH 810 0
DWIDTH 18 0
BBX 15 9 2 2
BITMAP
3E06
FFFE
FFFE
80F8
0000
7F06
FFFE
E3FC
8070
ENDCHAR
STARTCHAR 255F
ENCODING 9567
SWIDTH 585 0
DWIDTH 13 0
BBX 12 16 1 0
BITMAP
0F00
3FC0
7FE0
7FE0
F9F0
F0F0
F0F0
F7F0
F7F0
F7F0
F0F0
F0F0
F0F0
F0F0
F0F0
F0F0
ENDCHAR
STARTCHAR 2560
ENCODING 9568
SWIDTH 495 0
DWIDTH 11 0
BBX 10 16 1 0
BITMAP
00C0
0FC0
3FC0
7FC0
7C00
F000
FFC0
FFC0
FFC0
FFC0
F000
F800
7FC0
3FC0
1FC0
07C0
ENDCHAR
STARTCHAR 2561
ENCODING 9569
SWIDTH 270 0
DWIDTH 6 0
BBX 4 16 1 0
BITMAP
F0
F0
F0
F0
F0
F0
F0
F0
F0
F0
F0
F0
F0
F0
F0
F0
ENDCHAR
STARTCHAR 2562
ENCODING 9570
SWIDTH 765 0
DWIDTH 17 0
BBX 16 16 1 0
BITMAP
07C0
1FF0
3FF8
7FFC
7C3E
F81E
F01E
F00F
F00F
F01E
F01E
F83E
7FFC
3FFC
1FF8
0FE0
ENDCHAR
STARTCHAR 2563
ENCODING 9571
SWIDTH 585 0
DWIDTH 13 0
BBX 12 16 1 0
BITMAP
F0F0
F0F0
F0F0
F0F0
F0F0
F0F0
F0F0
F0F0
F0F0
F0F0
F0F0
F0F0
FFE0
7FE0
3FC0
1F80
ENDCHAR
STARTCHAR 2564
ENCODING 9572
SWIDTH 540 0
DWIDTH 12 0
BBX 11 16 1 0
BITMAP
F1E0
F1E0
F1E0
F1E0
F1E0
F1E0
F1E0
FFC0
7FC0
3F80
1F00
1E00
1E00
1E00
1E00
1E00
ENDCHAR
STARTCHAR 2565
ENCODING 9573
SWIDTH 540 0
DWIDTH 12 0
BBX 11 11 1 0
BITMAP
3F00
7F80
FFC0
F3C0
E1E0
E1E0
E1E0
F3E0
FFE0
7FE0
3FE0
ENDCHAR
STARTCHAR 2566
ENCODING 9574
SWIDTH 540 0
DWIDTH 12 0
BBX 11 11 1 0
BITMAP
3F00
7F80
FFC0
E3C0
EF00
EE00
E4C0
F1E0
FFC0
7F80
3F00
ENDCHAR
STARTCHAR 2567
ENCODING 9575
SWIDTH 225 0
DWIDTH 5 0
BBX 4 16 1 0
BITMAP
E0
F0
F0
E0
00
F0
F0
F0
F0
F0
F0
F0
F0
F0
F0
F0
ENDCHAR
STARTCHAR 2568
ENCODING 9576
SWIDTH 225 0
DWIDTH 5 0
BBX 4 11 1 0
BITMAP
F0
F0
F0
F0
F0
F0
F0
F0
F0
F0
F0
ENDCHAR
STARTCHAR 2569
ENCODING 9577
SWIDTH 540 0
DWIDTH 12 0
BBX 11 11 1 0
BITMAP
3F00
7F80
FFC0
F3C0
E1E0
E1E0
E1E0
F3C0
FFC0
7F80
3F00
ENDCHAR
STARTCHAR 256A
ENCODING 9578
SWIDTH 495 0
DWIDTH 11 0
BBX 10 11 1 0
BITMAP
E1C0
E1C0
E1C0
E1C0
E1C0
E1C0
E1C0
F3C0
FF80
7F80
3F00
ENDCHAR
STARTCHAR 256B
ENCODING 9579
SWIDTH 495 0
DWIDTH 11 0
BBX 10 16 1 -5
BITMAP
E1C0
E1C0
E1C0
E1C0
E1C0
E1C0
E1C0
F3C0
FF80
7F80
3F00
1E00
1E00
1E00
1E00
1E00
ENDCHAR
STARTCHAR 25CA
ENCODING 9674
SWIDTH 450 0
DWIDTH 10 0
BBX 11 23 0 -5
BITMAP
0400
0400
0E00
0A00
1B00
1100
3180
2080
2080
4040
4040
8020
C040
4040
60C0
2080
3180
1100
1B00
0A00
0E00
0400
0400
ENDCHAR
STARTCHAR 25CB
ENCODING 9675
SWIDTH 585 0
DWIDTH 13 0
BBX 6 9 4 16
BITMAP
38
30
60
C0
00
78
78
CC
84
ENDCHAR
STARTCHAR 25CF
ENCODING 9679
SWIDTH 585 0
DWIDTH 13 0
BBX 6 9 4 16
BITMAP
70
30
18
08
00
78
78
CC
84
ENDCHAR
STARTCHAR 25D8
ENCODING 9688
SWIDTH 585 0
DWIDTH 13 0
BBX 8 9 4 16
BITMAP
06
0B
01
07
04
78
78
CC
84
ENDCHAR
STARTCHAR 25D9
ENCODING 9689
SWIDTH 585 0
DWIDTH 13 0
BBX 7 8 4 16
BITMAP
22
7C
C8
00
78
78
CC
84
ENDCHAR
STARTCHAR F000
ENCODING 61440
SWIDTH 765 0
DWIDTH 17 0
BBX 15 17 1 1
BITMAP
0070
0060
00E0
0080
3FFC
7FFE
7FFC
FFF8
FFF8
FFF8
FFF8
7FFC
7FFE
7FFE
3FFC
1FFC
1FF8
ENDCHAR
STARTCHAR F001
ENCODING 61441
SWIDTH 540 0
DWIDTH 12 0
BBX 11 16 1 0
BITMAP
0DC0
7DE0
7DE0
FDC0
E000
FDE0
FDE0
FDE0
E1E0
E1E0
E1E0
E1E0
E1E0
E1E0
E1E0
E1E0
ENDCHAR
STARTCHAR F002
ENCODING 61442
SWIDTH 540 0
DWIDTH 12 0
BBX 11 16 1 0
BITMAP
0DE0
7DE0
7DE0
FDE0
E1E0
FDE0
FDE0
FDE0
E1E0
E1E0
E1E0
E1E0
E1E0
E1E0
E1E0
E1E0
ENDCHAR
ENDFONT
